<svg xmlns="http://www.w3.org/2000/svg" viewBox="0 0 1024 1024" width="1024" height="1024">
<defs>
<radialGradient id="bg" cx="50%" cy="42%" r="70%"><stop offset="0" stop-color="#4a2a6e"/><stop offset=".45" stop-color="#2e1a4c"/><stop offset="1" stop-color="#170b2a"/></radialGradient>
<pattern id="dots" width="44" height="44" patternUnits="userSpaceOnUse"><circle cx="22" cy="22" r="2.6" fill="#EAC6EA" fill-opacity=".14"/></pattern>
<linearGradient id="beam" x1="0" y1="0" x2="0" y2="1"><stop offset="0" stop-color="#EAC6EA" stop-opacity=".16"/><stop offset=".55" stop-color="#EAC6EA" stop-opacity=".05"/><stop offset=".8" stop-color="#EAC6EA" stop-opacity="0"/></linearGradient>
<radialGradient id="plinth"><stop offset="0" stop-color="#FF7AB6" stop-opacity=".42"/><stop offset=".55" stop-color="#FF7AB6" stop-opacity=".14"/><stop offset=".72" stop-color="#FF7AB6" stop-opacity="0"/></radialGradient>
</defs>
<rect width="1024" height="1024" fill="url(#bg)"/><rect width="1024" height="1024" fill="url(#dots)"/>
<polygon points="433 -82 590 -82 839 1126 184 1126" fill="url(#beam)"/>
<ellipse cx="512" cy="913.6" rx="330" ry="50" fill="url(#plinth)"/>
<g transform="translate(122.9 225.3) scale(1.3)" opacity="0.9"><g><path d="m20.1 1.8c.2 .7 .7 2.5 1 3.7 .4 1.2 .6 2.5 .9 3.7 .4 1.2 .7 2.4 1.1 3.6 .3 1.1 .8 2.8 1 3.4 .6 .2 2.3 .6 3.5 .9 1.1 .3 2.3 .5 3.4 .8 1.1 .3 2.3 .6 3.4 .9 1.1 .3 2.8 .8 3.4 1-.6 .2-2.3 .6-3.5 .9-1.1 .3-2.3 .6-3.4 1-1.1 .4-2.1 .9-3.3 1.3-1.1 .4-2.8 .9-3.4 1.1-.2 .5-.7 2.1-1.1 3.3-.3 1.1-.7 2.3-1 3.4-.4 1.2-.7 2.3-1 3.5-.4 1.1-1 2.9-1.2 3.5-.1-.6-.5-2.4-.9-3.5-.3-1.2-.6-2.3-1-3.5-.3-1.1-.6-2.3-.9-3.4-.3-1.2-.8-2.9-1-3.5-.6-.2-2.5-.7-3.7-1-1.2-.4-2.4-.7-3.5-1-1.2-.4-2.3-.8-3.4-1.1-1.1-.4-2.8-.8-3.4-1 .6-.1 2.3-.6 3.4-.9 1.1-.4 2.2-.6 3.3-1 1.2-.3 2.3-.6 3.5-.9 1.2-.4 3-.8 3.6-.9 .2-.6 .8-2.3 1.2-3.5 .3-1.1 .6-2.3 1-3.5 .3-1.2 .6-2.4 1-3.6 .3-1.2 .8-3 1-3.7z" fill="#E8D89B" stroke="none" stroke-width="0" stroke-linejoin="round" stroke-linecap="round" /><path d="m23.2 20.2c0 .2-.1 .8-.2 1.2-.2 .3-.4 .7-.7 .9-.2 .3-.6 .5-1 .6-.3 .2-.9 .2-1.1 .2-.2 0-.9-.1-1.2-.3-.4-.1-.7-.4-1-.7-.3-.3-.5-.6-.6-1-.2-.4-.3-1-.3-1.2 0-.2 0-.7 .2-1.1 .1-.3 .3-.6 .6-.9 .3-.2 .6-.4 1-.6 .4-.1 1-.1 1.2-.2 .3 .1 .9 .2 1.3 .3 .3 .2 .7 .4 .9 .7 .3 .2 .5 .6 .7 .9 .1 .4 .2 1 .2 1.2z" fill="#FFFFFF"/></g></g>
<g transform="translate(860.2 163.8) scale(1)" opacity="0.8"><g><path d="m20.1 1.8c.2 .7 .7 2.5 1 3.7 .4 1.2 .6 2.5 .9 3.7 .4 1.2 .7 2.4 1.1 3.6 .3 1.1 .8 2.8 1 3.4 .6 .2 2.3 .6 3.5 .9 1.1 .3 2.3 .5 3.4 .8 1.1 .3 2.3 .6 3.4 .9 1.1 .3 2.8 .8 3.4 1-.6 .2-2.3 .6-3.5 .9-1.1 .3-2.3 .6-3.4 1-1.1 .4-2.1 .9-3.3 1.3-1.1 .4-2.8 .9-3.4 1.1-.2 .5-.7 2.1-1.1 3.3-.3 1.1-.7 2.3-1 3.4-.4 1.2-.7 2.3-1 3.5-.4 1.1-1 2.9-1.2 3.5-.1-.6-.5-2.4-.9-3.5-.3-1.2-.6-2.3-1-3.5-.3-1.1-.6-2.3-.9-3.4-.3-1.2-.8-2.9-1-3.5-.6-.2-2.5-.7-3.7-1-1.2-.4-2.4-.7-3.5-1-1.2-.4-2.3-.8-3.4-1.1-1.1-.4-2.8-.8-3.4-1 .6-.1 2.3-.6 3.4-.9 1.1-.4 2.2-.6 3.3-1 1.2-.3 2.3-.6 3.5-.9 1.2-.4 3-.8 3.6-.9 .2-.6 .8-2.3 1.2-3.5 .3-1.1 .6-2.3 1-3.5 .3-1.2 .6-2.4 1-3.6 .3-1.2 .8-3 1-3.7z" fill="#E8D89B" stroke="none" stroke-width="0" stroke-linejoin="round" stroke-linecap="round" /><path d="m23.2 20.2c0 .2-.1 .8-.2 1.2-.2 .3-.4 .7-.7 .9-.2 .3-.6 .5-1 .6-.3 .2-.9 .2-1.1 .2-.2 0-.9-.1-1.2-.3-.4-.1-.7-.4-1-.7-.3-.3-.5-.6-.6-1-.2-.4-.3-1-.3-1.2 0-.2 0-.7 .2-1.1 .1-.3 .3-.6 .6-.9 .3-.2 .6-.4 1-.6 .4-.1 1-.1 1.2-.2 .3 .1 .9 .2 1.3 .3 .3 .2 .7 .4 .9 .7 .3 .2 .5 .6 .7 .9 .1 .4 .2 1 .2 1.2z" fill="#FFFFFF"/></g></g>
<g transform="translate(870.4 634.9) scale(1.4)" opacity="0.9"><g><path d="m20.1 1.8c.2 .7 .7 2.5 1 3.7 .4 1.2 .6 2.5 .9 3.7 .4 1.2 .7 2.4 1.1 3.6 .3 1.1 .8 2.8 1 3.4 .6 .2 2.3 .6 3.5 .9 1.1 .3 2.3 .5 3.4 .8 1.1 .3 2.3 .6 3.4 .9 1.1 .3 2.8 .8 3.4 1-.6 .2-2.3 .6-3.5 .9-1.1 .3-2.3 .6-3.4 1-1.1 .4-2.1 .9-3.3 1.3-1.1 .4-2.8 .9-3.4 1.1-.2 .5-.7 2.1-1.1 3.3-.3 1.1-.7 2.3-1 3.4-.4 1.2-.7 2.3-1 3.5-.4 1.1-1 2.9-1.2 3.5-.1-.6-.5-2.4-.9-3.5-.3-1.2-.6-2.3-1-3.5-.3-1.1-.6-2.3-.9-3.4-.3-1.2-.8-2.9-1-3.5-.6-.2-2.5-.7-3.7-1-1.2-.4-2.4-.7-3.5-1-1.2-.4-2.3-.8-3.4-1.1-1.1-.4-2.8-.8-3.4-1 .6-.1 2.3-.6 3.4-.9 1.1-.4 2.2-.6 3.3-1 1.2-.3 2.3-.6 3.5-.9 1.2-.4 3-.8 3.6-.9 .2-.6 .8-2.3 1.2-3.5 .3-1.1 .6-2.3 1-3.5 .3-1.2 .6-2.4 1-3.6 .3-1.2 .8-3 1-3.7z" fill="#E8D89B" stroke="none" stroke-width="0" stroke-linejoin="round" stroke-linecap="round" /><path d="m23.2 20.2c0 .2-.1 .8-.2 1.2-.2 .3-.4 .7-.7 .9-.2 .3-.6 .5-1 .6-.3 .2-.9 .2-1.1 .2-.2 0-.9-.1-1.2-.3-.4-.1-.7-.4-1-.7-.3-.3-.5-.6-.6-1-.2-.4-.3-1-.3-1.2 0-.2 0-.7 .2-1.1 .1-.3 .3-.6 .6-.9 .3-.2 .6-.4 1-.6 .4-.1 1-.1 1.2-.2 .3 .1 .9 .2 1.3 .3 .3 .2 .7 .4 .9 .7 .3 .2 .5 .6 .7 .9 .1 .4 .2 1 .2 1.2z" fill="#FFFFFF"/></g></g>
<g transform="translate(112.6 675.8) scale(0.9)" opacity="0.7"><g><path d="m20.1 1.8c.2 .7 .7 2.5 1 3.7 .4 1.2 .6 2.5 .9 3.7 .4 1.2 .7 2.4 1.1 3.6 .3 1.1 .8 2.8 1 3.4 .6 .2 2.3 .6 3.5 .9 1.1 .3 2.3 .5 3.4 .8 1.1 .3 2.3 .6 3.4 .9 1.1 .3 2.8 .8 3.4 1-.6 .2-2.3 .6-3.5 .9-1.1 .3-2.3 .6-3.4 1-1.1 .4-2.1 .9-3.3 1.3-1.1 .4-2.8 .9-3.4 1.1-.2 .5-.7 2.1-1.1 3.3-.3 1.1-.7 2.3-1 3.4-.4 1.2-.7 2.3-1 3.5-.4 1.1-1 2.9-1.2 3.5-.1-.6-.5-2.4-.9-3.5-.3-1.2-.6-2.3-1-3.5-.3-1.1-.6-2.3-.9-3.4-.3-1.2-.8-2.9-1-3.5-.6-.2-2.5-.7-3.7-1-1.2-.4-2.4-.7-3.5-1-1.2-.4-2.3-.8-3.4-1.1-1.1-.4-2.8-.8-3.4-1 .6-.1 2.3-.6 3.4-.9 1.1-.4 2.2-.6 3.3-1 1.2-.3 2.3-.6 3.5-.9 1.2-.4 3-.8 3.6-.9 .2-.6 .8-2.3 1.2-3.5 .3-1.1 .6-2.3 1-3.5 .3-1.2 .6-2.4 1-3.6 .3-1.2 .8-3 1-3.7z" fill="#E8D89B" stroke="none" stroke-width="0" stroke-linejoin="round" stroke-linecap="round" /><path d="m23.2 20.2c0 .2-.1 .8-.2 1.2-.2 .3-.4 .7-.7 .9-.2 .3-.6 .5-1 .6-.3 .2-.9 .2-1.1 .2-.2 0-.9-.1-1.2-.3-.4-.1-.7-.4-1-.7-.3-.3-.5-.6-.6-1-.2-.4-.3-1-.3-1.2 0-.2 0-.7 .2-1.1 .1-.3 .3-.6 .6-.9 .3-.2 .6-.4 1-.6 .4-.1 1-.1 1.2-.2 .3 .1 .9 .2 1.3 .3 .3 .2 .7 .4 .9 .7 .3 .2 .5 .6 .7 .9 .1 .4 .2 1 .2 1.2z" fill="#FFFFFF"/></g></g>
<defs><radialGradient id="flashglow"><stop offset="0" stop-color="#FFFFFF" stop-opacity=".75"/><stop offset=".35" stop-color="#FFD3E4" stop-opacity=".35"/><stop offset="1" stop-color="#FF7AB6" stop-opacity="0"/></radialGradient></defs><g transform="rotate(-9 512 514)"><g transform="translate(327.7 163.8) scale(9.2)"><g><g class="ph-open"><path d="m6.9 3.9c.4 0 1-.1 1.9-.1 1-.1 2.3-.1 3.7-.1 1.4 0 3.2 0 4.9 0 1.7 0 3.6 0 5.2 0 1.7 0 3.4 .1 4.8 .1 1.5 .1 2.8 .1 3.7 .2 .9 0 1.6 0 2 .1 .2 .1 .9 .2 1.3 .4 .4 .3 .8 .6 1.1 .9 .3 .4 .5 .8 .7 1.2 .1 .5 .3 1.2 .3 1.4 0 .3 .1 1 .1 2 0 .9 0 2.3-.1 3.7 0 1.4-.1 3-.1 4.6-.1 1.7-.2 3.5-.2 5.1 0 1.7-.1 3.4-.1 4.9 0 1.4 0 2.8-.1 3.7 0 1 0 1.7 0 2-.1 .2-.1 .9-.2 1.3-.1 .3-.2 .6-.4 .9-.2 .2-.4 .4-.7 .6-.3 .1-1 .2-1.2 .2-.3 0-1 .1-2 .1-1 0-2.4-.1-3.9-.1-1.5 0-3.2 0-5 0-1.7 0-3.6 0-5.3 0-1.7 0-3.5 0-5 0-1.5 0-2.8 0-3.8 0-1 0-1.7 0-2 0-.2-.1-.9-.1-1.2-.3-.3-.1-.5-.3-.7-.5-.1-.3-.2-.6-.3-.9-.1-.4-.2-1.1-.2-1.3 0-.3 0-.9-.1-1.9 0-.9-.1-2.3-.1-3.8-.1-1.4-.1-3.2-.2-4.8 0-1.7-.1-3.5-.1-5.1 0-1.6 0-3.3 0-4.7-.1-1.4-.1-2.8-.1-3.7 .1-1 .1-1.7 .1-2 0-.3 .2-1 .3-1.5 .2-.4 .4-.9 .7-1.2 .3-.4 .6-.7 1-.9 .4-.3 1.1-.4 1.3-.5z" fill="#E84D7F" stroke="#000000" stroke-width="1.6" stroke-linejoin="round" stroke-linecap="round" /><path d="m8 6.9c.4 0 1.5 0 2.6 0 1.2 0 2.6 .1 4.1 .1 1.5 0 3.2 0 4.9 0 1.5 0 3.2 .1 4.7 .1 1.5 0 2.9 0 4 0 1.1 0 2.3 0 2.7 0" fill="none" stroke="#F59AB8" stroke-width="1.4" stroke-linejoin="round" stroke-linecap="round" opacity="0.9"/><path d="m10.9 13c.4 0 1.2-.1 2.3-.1 1.1 0 2.8 .1 4.3 .1 1.6 0 3.5 .1 5 .1 1.6 0 3.2-.1 4.3-.1 1.1 0 1.9 .1 2.2 .1 .2 0 .6 .1 .7 .2 .2 .1 .3 .3 .3 .5 .1 .2 .1 .4 .1 .6 0 .2-.1 .5-.1 .6 0 .3 .1 1 .1 1.8 0 .8 0 2.1-.1 3.1-.1 1.1-.1 2.4-.3 3.2-.1 .9-.6 1.5-.7 1.8-.3 .1-1.1 .3-2.1 .4-1.1 .1-2.8 .2-4.3 .2-1.5 0-3.5 0-5 0-1.6-.1-3.3-.2-4.4-.3-1.1 0-1.9-.2-2.3-.3-.1-.3-.5-.9-.7-1.7-.2-.8-.2-2.1-.3-3.2-.1-1.1-.1-2.4-.1-3.2 0-.9 0-1.5 .1-1.8 0-.1-.1-.5-.1-.7 .1-.2 0-.4 .1-.6 .1-.2 .1-.4 .3-.5 .2-.1 .6-.2 .7-.2z" fill="#231A2C" stroke="#000000" stroke-width="1" stroke-linejoin="round" stroke-linecap="round" /><path d="m12.9 15c.7 0 2.7 0 4 .1 1.4 0 3.5 0 4.2 0" fill="none" stroke="#6E5A88" stroke-width="1" stroke-linejoin="round" stroke-linecap="round" opacity="0.9"/><path d="m23.1 30.4c-.1 .2-.1 .8-.3 1.2-.1 .3-.4 .6-.6 .9-.3 .3-.6 .5-1 .6-.3 .2-1 .2-1.2 .3-.1-.1-.8-.1-1.1-.3-.4-.1-.7-.3-1-.6-.3-.3-.5-.6-.7-.9-.1-.4-.2-1-.2-1.2 0-.2 .1-.8 .3-1.2 .1-.3 .4-.6 .6-.9 .3-.3 .6-.5 1-.6 .4-.2 1-.3 1.2-.3 .2 0 .8 .1 1.1 .2 .4 .2 .7 .4 1 .7 .3 .3 .5 .6 .6 .9 .2 .4 .2 1 .3 1.2z" fill="#231A2C" stroke="#000000" stroke-width="0.9" /><path d="m21.5 30.4c-.1 .1-.1 .4-.1 .5-.1 .2-.2 .4-.3 .5-.2 .1-.3 .2-.5 .3-.2 .1-.5 .1-.5 .1-.2 0-.4 0-.6-.1-.2-.1-.3-.2-.5-.3-.1-.1-.2-.3-.3-.5 0-.1-.1-.4-.1-.5 0-.1 .1-.4 .2-.5 0-.2 .1-.4 .3-.5 .1-.1 .3-.2 .4-.3 .2 0 .5-.1 .6-.1 .1 0 .3 0 .5 .1 .2 .1 .3 .2 .5 .3 .1 .1 .2 .3 .3 .5 0 .1 0 .4 .1 .5z" fill="#5B6FA8" stroke="none" stroke-width="0" /><path d="m20 29.8c-.1 0-.1 .1-.1 .2 0 .1 0 .1-.1 .2 0 0-.1 0-.2 .1 0 0-.1 0-.2 0 0 0-.1 0-.2 0 0-.1-.1-.1-.1-.1-.1-.1-.1-.1-.1-.2 0-.1-.1-.2-.1-.2 0 0 .1-.1 .1-.2 0 0 .1-.1 .1-.2 0 0 .1 0 .2 0 0-.1 .1-.1 .2-.1 0 0 .1 0 .1 0 .1 .1 .2 .1 .2 .1 .1 .1 .1 .2 .1 .2 0 .1 0 .2 .1 .2z" fill="#FFFFFF"/><path d="m28.9 30.5c-.1 .1-.1 .3-.2 .4 0 .2-.1 .3-.3 .4-.1 .1-.2 .1-.4 .2-.2 .1-.4 .1-.5 .1-.1 0-.4-.1-.6-.1-.1-.1-.3-.2-.4-.3-.1-.1-.2-.2-.3-.3-.1-.1-.1-.4-.1-.5 0 0 .1-.2 .1-.4 .1-.1 .2-.2 .3-.3 .2-.1 .3-.2 .5-.3 .1 0 .4 0 .5 0 .1 0 .4 0 .5 .1 .2 0 .4 .1 .5 .2 .1 .1 .2 .2 .3 .4 0 .1 0 .3 .1 .4z" fill="#FFFFFF" stroke="#000000" stroke-width="0.6" /><path d="m5 36.5c.7 0 2.5-.1 3.7-.1 1.3 0 2.5 0 3.7 0 1.3 0 2.5 0 3.8 0 1.2 0 2.5 0 3.8 0 1.2 0 2.5-.1 3.7-.1 1.3 .1 2.5 .1 3.8 .1 1.2 0 2.5 .1 3.8 .1 1.2 0 3.1 0 3.7 0l.1 4.9c-.7 0-2.6 0-3.8 0-1.3 0-2.5 0-3.8 0-1.3 0-2.6 0-3.9 0-1.2 0-2.5 0-3.8 0-1.2 0-2.5 .1-3.7 .1-1.3 0-2.5 0-3.8 0-1.2 0-2.4 0-3.6 0-1.3 0-3.1 0-3.7 0l0-5z" fill="#B23562" stroke="#000000" stroke-width="1.2" stroke-linejoin="round" stroke-linecap="round" /><path d="m8 39c.6 0 2.6 0 3.9 0 1.3 0 2.6-.1 4-.1 1.3 0 2.7 0 4 0 1.4 0 2.7 0 4 0 1.4 0 2.7 0 4.1 0 1.3 0 3.4 .1 4 .1" fill="none" stroke="#E9BCD0" stroke-width="0.8" stroke-linejoin="round" stroke-linecap="round" opacity="0.8"/><path d="m5 41c.3-.1 .9-.4 1.8-.6 .8-.2 2-.3 3.3-.4 1.4-.1 3-.2 4.6-.3 1.6-.1 3.5-.1 5.2-.2 1.7 0 3.6 .1 5.2 .1 1.7 .1 3.3 .2 4.7 .3 1.3 .1 2.6 .3 3.5 .5 .8 .1 1.5 .4 1.8 .5 .1 .3 .5 1 .7 2 .1 .9 .1 2.4 .2 3.9 .1 1.5 .1 3.2 .1 5 .1 1.7 0 3.6-.1 5.3 0 1.8 0 3.4-.1 4.9-.1 1.4-.2 2.8-.2 3.8-.1 1-.2 1.8-.2 2.1-.1 .3-.2 1.1-.5 1.6-.2 .5-.6 1-1 1.4-.3 .4-.8 .8-1.2 1.1-.5 .2-1.2 .4-1.4 .5-.3 0-1.1 .1-2.1 .1-1.1 0-2.5 0-4.1 0-1.5 0-3.4 0-5.1 .1-1.7 0-3.6 .1-5.2 .1-1.6 0-3.2-.1-4.3-.1-1.1 0-1.8-.1-2.2-.1-.2-.1-.9-.3-1.4-.6-.4-.3-.8-.7-1.2-1.1-.4-.4-.7-.9-1-1.4-.2-.5-.3-1.3-.4-1.6 0-.3-.1-1-.1-2-.1-1-.1-2.4-.2-3.8-.1-1.5-.1-3.3-.2-5 0-1.7-.1-3.5-.1-5.2 0-1.7 .1-3.5 .1-5 .1-1.5 .3-2.9 .4-3.9 .2-1 .6-1.6 .7-2z" fill="#E84D7F" stroke="#000000" stroke-width="1.6" stroke-linejoin="round" stroke-linecap="round" /><path d="m19.8 54.7 0-.1-.2-.4-.2-.5-.6-.6-.6-.4-.7 0-.8 .2-.7 .5-.5 .7-.2 .9 .1 .8 .5 .8 .7 .8 .8 .7 .9 .7 .6 .6 .5 .6 .3 .5 .1 .3 0 .1 0-.4 .3-1.9-.6-1 .8-1.1-1.1-.9 .6-1 0 .1z" fill="#FFFFFF" stroke="#000000" stroke-width="0.7" stroke-linejoin="round" stroke-linecap="round" /><path d="m20.4 54.7 0-.1 0-.4 .3-.5 .5-.5 .6-.4 .8 0 .8 .2 .7 .4 .6 .7 .2 .8-.2 .8-.5 .8-.7 .8-.8 .7-.8 .7-.5 .6-.6 .6-.3 .5-.1 .3 0 .1 0-.3 .2-1.9-.6-1 .8-1.1-1.1-.9 .7-1 0 .1z" fill="#FFFFFF" stroke="#000000" stroke-width="0.7" stroke-linejoin="round" stroke-linecap="round" /><path d="m7.9 46.1c0 .5 0 1.7 0 3 0 1.3 .1 2.9 .1 4.5 0 1.6 0 3.3 0 4.9 0 1.6-.1 3.3-.1 4.5 0 1.3 0 2.5 0 3" fill="none" stroke="#F59AB8" stroke-width="1.2" stroke-linejoin="round" stroke-linecap="round" opacity="0.8"/></g></g></g><circle cx="581.1" cy="444.9" r="133.1" fill="url(#flashglow)"/><g transform="translate(504.3 368.1) scale(2.4)"><g><path d="m62 32c0 .5-18.5 3.5-18.9 4.6-.5 1.1 10.4 16.3 10.1 16.6-.3 .3-15.5-10.6-16.6-10.1-1.1 .4-4.1 18.9-4.6 18.9-.5 0-3.5-18.5-4.6-18.9-1.1-.5-16.3 10.4-16.6 10.1-.3-.3 10.6-15.5 10.1-16.6-.4-1.1-18.9-4.1-18.9-4.6 0-.5 18.5-3.5 18.9-4.6 .5-1.1-10.4-16.3-10.1-16.6 .3-.3 15.5 10.6 16.6 10.1 1.1-.4 4.1-18.9 4.6-18.9 .5 0 3.5 18.5 4.6 18.9 1.1 .5 16.3-10.4 16.6-10.1 .3 .3-10.6 15.5-10.1 16.6 .4 1.1 18.9 4.1 18.9 4.6z" fill="#FFFFFF" stroke="#E84D7F" stroke-width="1.6" stroke-linejoin="round" stroke-linecap="round" /><ellipse cx="32" cy="32" rx="9" ry="9" fill="#FFFFFF" stroke="none" stroke-width="0" /><ellipse cx="32" cy="32" rx="14" ry="14" fill="#FFF6FA" stroke="none" stroke-width="0" opacity="0.8"/></g></g></g><g transform="translate(204.8 307.2) rotate(-14 35.8 35.8) scale(1.8)"><g><path d="m20 35.4c-.7-.5-3.1-2.1-4.4-3.2-1.3-1.1-2.6-2.4-3.6-3.5-1.1-1.1-2-2-2.8-3-.9-1.1-1.6-2.2-2.1-3.2-.6-1.1-1-2.2-1.2-3.1-.3-1-.5-1.8-.5-2.7 0-.9 0-1.8 .2-2.6 .2-.9 .5-1.8 .9-2.7 .4-.8 1.2-2.1 1.4-2.5 .5-.4 1.7-1.9 2.6-2.4 1-.4 2.1-.3 3.2-.1 1 .1 2.1 .5 3 1.1 .9 .5 1.7 1.3 2.3 2.1 .5 .9 .9 2.4 1.1 2.9 .2-.4 .5-1.9 1.1-2.7 .6-.8 1.5-1.7 2.4-2.2 .8-.5 1.8-.8 2.7-.9 1-.1 1.9 .1 2.9 .5 .9 .4 2.4 1.7 2.8 2 .3 .4 1.3 1.5 1.7 2.3 .4 .8 .7 1.6 .9 2.5 .2 .8 .2 1.7 .1 2.5-.2 .9-.6 1.7-.9 2.6-.4 1-.8 2-1.3 3.1-.5 1.1-1.1 2.4-1.9 3.5-.8 1.2-1.7 2.5-2.7 3.6-1 1-2.2 1.9-3.5 3-1.3 1-3.6 2.6-4.4 3.1z" fill="#E84D7F" stroke="#000000" stroke-width="2.7" stroke-linejoin="round" stroke-linecap="round" /><path d="m10.7 12.9c.1-.3 .5-1.2 .8-1.7 .4-.5 .7-1 1.2-1.3 .4-.3 .9-.5 1.5-.6 .6-.2 1.6-.2 1.9-.2" fill="none" stroke="#FFFFFF" stroke-width="2" stroke-linejoin="round" stroke-linecap="round" opacity="0.9"/></g></g><g transform="translate(768 573.4) rotate(12 30.7 30.7) scale(1.5)"><g><path d="m20 35.4c-.7-.5-3.1-2.1-4.4-3.2-1.3-1.1-2.6-2.4-3.6-3.5-1.1-1.1-2-2-2.8-3-.9-1.1-1.6-2.2-2.1-3.2-.6-1.1-1-2.2-1.2-3.1-.3-1-.5-1.8-.5-2.7 0-.9 0-1.8 .2-2.6 .2-.9 .5-1.8 .9-2.7 .4-.8 1.2-2.1 1.4-2.5 .5-.4 1.7-1.9 2.6-2.4 1-.4 2.1-.3 3.2-.1 1 .1 2.1 .5 3 1.1 .9 .5 1.7 1.3 2.3 2.1 .5 .9 .9 2.4 1.1 2.9 .2-.4 .5-1.9 1.1-2.7 .6-.8 1.5-1.7 2.4-2.2 .8-.5 1.8-.8 2.7-.9 1-.1 1.9 .1 2.9 .5 .9 .4 2.4 1.7 2.8 2 .3 .4 1.3 1.5 1.7 2.3 .4 .8 .7 1.6 .9 2.5 .2 .8 .2 1.7 .1 2.5-.2 .9-.6 1.7-.9 2.6-.4 1-.8 2-1.3 3.1-.5 1.1-1.1 2.4-1.9 3.5-.8 1.2-1.7 2.5-2.7 3.6-1 1-2.2 1.9-3.5 3-1.3 1-3.6 2.6-4.4 3.1z" fill="#E84D7F" stroke="#000000" stroke-width="2.7" stroke-linejoin="round" stroke-linecap="round" /><path d="m10.7 12.9c.1-.3 .5-1.2 .8-1.7 .4-.5 .7-1 1.2-1.3 .4-.3 .9-.5 1.5-.6 .6-.2 1.6-.2 1.9-.2" fill="none" stroke="#FFFFFF" stroke-width="2" stroke-linejoin="round" stroke-linecap="round" opacity="0.9"/></g></g><g transform="translate(245.8 716.8) rotate(8 25.6 25.6) scale(1.3)"><g><path d="m20 35.4c-.7-.5-3.1-2.1-4.4-3.2-1.3-1.1-2.6-2.4-3.6-3.5-1.1-1.1-2-2-2.8-3-.9-1.1-1.6-2.2-2.1-3.2-.6-1.1-1-2.2-1.2-3.1-.3-1-.5-1.8-.5-2.7 0-.9 0-1.8 .2-2.6 .2-.9 .5-1.8 .9-2.7 .4-.8 1.2-2.1 1.4-2.5 .5-.4 1.7-1.9 2.6-2.4 1-.4 2.1-.3 3.2-.1 1 .1 2.1 .5 3 1.1 .9 .5 1.7 1.3 2.3 2.1 .5 .9 .9 2.4 1.1 2.9 .2-.4 .5-1.9 1.1-2.7 .6-.8 1.5-1.7 2.4-2.2 .8-.5 1.8-.8 2.7-.9 1-.1 1.9 .1 2.9 .5 .9 .4 2.4 1.7 2.8 2 .3 .4 1.3 1.5 1.7 2.3 .4 .8 .7 1.6 .9 2.5 .2 .8 .2 1.7 .1 2.5-.2 .9-.6 1.7-.9 2.6-.4 1-.8 2-1.3 3.1-.5 1.1-1.1 2.4-1.9 3.5-.8 1.2-1.7 2.5-2.7 3.6-1 1-2.2 1.9-3.5 3-1.3 1-3.6 2.6-4.4 3.1z" fill="#E84D7F" stroke="#000000" stroke-width="2.7" stroke-linejoin="round" stroke-linecap="round" /><path d="m10.7 12.9c.1-.3 .5-1.2 .8-1.7 .4-.5 .7-1 1.2-1.3 .4-.3 .9-.5 1.5-.6 .6-.2 1.6-.2 1.9-.2" fill="none" stroke="#FFFFFF" stroke-width="2" stroke-linejoin="round" stroke-linecap="round" opacity="0.9"/></g></g>
</svg>