<svg xmlns="http://www.w3.org/2000/svg" viewBox="0 0 1024 1024" width="1024" height="1024">
<defs>
<linearGradient id="carpet" x1="0" y1="1" x2="0" y2="0"><stop offset="0" stop-color="#C4AD63"/><stop offset=".55" stop-color="#BFA75C"/><stop offset="1" stop-color="#AE9650"/></linearGradient>
<pattern id="pile" width="7" height="7" patternUnits="userSpaceOnUse"><circle cx="1.8" cy="1.8" r="1" fill="#46320A" fill-opacity=".12"/><circle cx="5.3" cy="5.3" r="1" fill="#FFF0BE" fill-opacity=".13"/></pattern>
<linearGradient id="deep" x1="0" y1="0" x2="1" y2="0"><stop offset="0" stop-color="#3A2C0A" stop-opacity=".55"/><stop offset="1" stop-color="#3A2C0A" stop-opacity="0"/></linearGradient>
<linearGradient id="doorway" x1="0" y1="0" x2="0" y2="1"><stop offset="0" stop-color="#3A2C0A" stop-opacity=".5"/><stop offset="1" stop-color="#3A2C0A" stop-opacity=".1"/></linearGradient>
<linearGradient id="wallLight" x1="0" y1="0" x2="0" y2="1"><stop offset="0" stop-color="#FFFCE0" stop-opacity=".34"/><stop offset=".45" stop-color="#FFFCE0" stop-opacity="0"/></linearGradient>
<linearGradient id="footL" x1="0" y1="0" x2="0" y2="1"><stop offset="0" stop-color="#4A360A" stop-opacity="0"/><stop offset="1" stop-color="#4A360A" stop-opacity=".28"/></linearGradient>
<radialGradient id="haze"><stop offset="0" stop-color="#E9D77A" stop-opacity=".78"/><stop offset=".18" stop-color="#E9D77A" stop-opacity=".45"/><stop offset=".5" stop-color="#E9D77A" stop-opacity=".12"/><stop offset="1" stop-color="#E9D77A" stop-opacity="0"/></radialGradient>
<radialGradient id="vignette" cx="50%" cy="50%" r="72%"><stop offset=".55" stop-color="#000" stop-opacity="0"/><stop offset="1" stop-color="#000" stop-opacity=".3"/></radialGradient>
</defs>
<path d="M-90,-110 L1114,-110 L581.2,403.3 L442.8,403.3 Z" fill="#E6DFB9"/>
<path d="M-90,1110 L1114,1110 L581.2,543.6 L442.8,543.6 Z" fill="url(#carpet)"/>
<path d="M-90,1110 L1114,1110 L581.2,543.6 L442.8,543.6 Z" fill="url(#pile)"/>
<path d="M-90,-110 L442.8,403.3 L442.8,543.6 L-90,1110 Z" fill="#E9D77A"/>
<path d="M1114,-110 L581.2,403.3 L581.2,543.6 L1114,1110 Z" fill="#E4D072"/>
<path d="M442.8,403.3 L581.2,403.3 L581.2,543.6 L442.8,543.6 Z" fill="#DCC864"/>
<path d="M-90,-110 L-90,1110" stroke="#D9C25C" stroke-opacity=".5" stroke-width="3.4"/>
<path d="M1114,-110 L1114,1110" stroke="#CDB54F" stroke-opacity=".5" stroke-width="3.4"/>
<path d="M-2.1,-25.3 L-2.1,1016.5" stroke="#D9C25C" stroke-opacity=".5" stroke-width="3.1"/>
<path d="M1026.1,-25.3 L1026.1,1016.5" stroke="#CDB54F" stroke-opacity=".5" stroke-width="3.1"/>
<path d="M63.4,37.8 L63.4,946.9" stroke="#D9C25C" stroke-opacity=".5" stroke-width="2.8"/>
<path d="M960.6,37.8 L960.6,946.9" stroke="#CDB54F" stroke-opacity=".5" stroke-width="2.8"/>
<path d="M114.1,86.7 L114.1,893" stroke="#D9C25C" stroke-opacity=".5" stroke-width="2.7"/>
<path d="M909.9,86.7 L909.9,893" stroke="#CDB54F" stroke-opacity=".5" stroke-width="2.7"/>
<path d="M154.5,125.6 L154.5,850" stroke="#D9C25C" stroke-opacity=".5" stroke-width="2.5"/>
<path d="M869.5,125.6 L869.5,850" stroke="#CDB54F" stroke-opacity=".5" stroke-width="2.5"/>
<path d="M187.5,157.3 L187.5,815" stroke="#D9C25C" stroke-opacity=".5" stroke-width="2.4"/>
<path d="M836.5,157.3 L836.5,815" stroke="#CDB54F" stroke-opacity=".5" stroke-width="2.4"/>
<path d="M214.9,183.7 L214.9,785.9" stroke="#D9C25C" stroke-opacity=".5" stroke-width="2.3"/>
<path d="M809.1,183.7 L809.1,785.9" stroke="#CDB54F" stroke-opacity=".5" stroke-width="2.3"/>
<path d="M238,206 L238,761.3" stroke="#D9C25C" stroke-opacity=".5" stroke-width="2.2"/>
<path d="M786,206 L786,761.3" stroke="#CDB54F" stroke-opacity=".5" stroke-width="2.2"/>
<path d="M257.8,225.1 L257.8,740.3" stroke="#D9C25C" stroke-opacity=".5" stroke-width="2.1"/>
<path d="M766.2,225.1 L766.2,740.3" stroke="#CDB54F" stroke-opacity=".5" stroke-width="2.1"/>
<path d="M274.9,241.6 L274.9,722.1" stroke="#D9C25C" stroke-opacity=".5" stroke-width="2.1"/>
<path d="M749.1,241.6 L749.1,722.1" stroke="#CDB54F" stroke-opacity=".5" stroke-width="2.1"/>
<path d="M289.9,256 L289.9,706.1" stroke="#D9C25C" stroke-opacity=".5" stroke-width="2"/>
<path d="M734.1,256 L734.1,706.1" stroke="#CDB54F" stroke-opacity=".5" stroke-width="2"/>
<path d="M303.1,268.7 L303.1,692.1" stroke="#D9C25C" stroke-opacity=".5" stroke-width="2"/>
<path d="M720.9,268.7 L720.9,692.1" stroke="#CDB54F" stroke-opacity=".5" stroke-width="2"/>
<path d="M314.8,280 L314.8,679.7" stroke="#D9C25C" stroke-opacity=".5" stroke-width="1.9"/>
<path d="M709.2,280 L709.2,679.7" stroke="#CDB54F" stroke-opacity=".5" stroke-width="1.9"/>
<path d="M325.2,290.1 L325.2,668.6" stroke="#D9C25C" stroke-opacity=".5" stroke-width="1.9"/>
<path d="M698.8,290.1 L698.8,668.6" stroke="#CDB54F" stroke-opacity=".5" stroke-width="1.9"/>
<path d="M334.6,299.1 L334.6,658.6" stroke="#D9C25C" stroke-opacity=".5" stroke-width="1.8"/>
<path d="M689.4,299.1 L689.4,658.6" stroke="#CDB54F" stroke-opacity=".5" stroke-width="1.8"/>
<path d="M343.1,307.3 L343.1,649.5" stroke="#D9C25C" stroke-opacity=".5" stroke-width="1.8"/>
<path d="M680.9,307.3 L680.9,649.5" stroke="#CDB54F" stroke-opacity=".5" stroke-width="1.8"/>
<path d="M350.9,314.8 L350.9,641.3" stroke="#D9C25C" stroke-opacity=".5" stroke-width="1.8"/>
<path d="M673.1,314.8 L673.1,641.3" stroke="#CDB54F" stroke-opacity=".5" stroke-width="1.8"/>
<path d="M357.9,321.6 L357.9,633.8" stroke="#D9C25C" stroke-opacity=".5" stroke-width="1.8"/>
<path d="M666.1,321.6 L666.1,633.8" stroke="#CDB54F" stroke-opacity=".5" stroke-width="1.8"/>
<path d="M364.4,327.8 L364.4,626.9" stroke="#D9C25C" stroke-opacity=".5" stroke-width="1.7"/>
<path d="M659.6,327.8 L659.6,626.9" stroke="#CDB54F" stroke-opacity=".5" stroke-width="1.7"/>
<path d="M370.3,333.5 L370.3,620.6" stroke="#D9C25C" stroke-opacity=".5" stroke-width="1.7"/>
<path d="M653.7,333.5 L653.7,620.6" stroke="#CDB54F" stroke-opacity=".5" stroke-width="1.7"/>
<path d="M375.8,338.8 L375.8,614.8" stroke="#D9C25C" stroke-opacity=".5" stroke-width="1.7"/>
<path d="M648.2,338.8 L648.2,614.8" stroke="#CDB54F" stroke-opacity=".5" stroke-width="1.7"/>
<path d="M380.9,343.7 L380.9,609.4" stroke="#D9C25C" stroke-opacity=".5" stroke-width="1.7"/>
<path d="M643.1,343.7 L643.1,609.4" stroke="#CDB54F" stroke-opacity=".5" stroke-width="1.7"/>
<path d="M385.6,348.2 L385.6,604.4" stroke="#D9C25C" stroke-opacity=".5" stroke-width="1.7"/>
<path d="M638.4,348.2 L638.4,604.4" stroke="#CDB54F" stroke-opacity=".5" stroke-width="1.7"/>
<path d="M390,352.4 L390,599.7" stroke="#D9C25C" stroke-opacity=".5" stroke-width="1.6"/>
<path d="M634,352.4 L634,599.7" stroke="#CDB54F" stroke-opacity=".5" stroke-width="1.6"/>
<path d="M394.1,356.4 L394.1,595.4" stroke="#D9C25C" stroke-opacity=".5" stroke-width="1.6"/>
<path d="M629.9,356.4 L629.9,595.4" stroke="#CDB54F" stroke-opacity=".5" stroke-width="1.6"/>
<path d="M397.9,360.1 L397.9,591.3" stroke="#D9C25C" stroke-opacity=".5" stroke-width="1.6"/>
<path d="M626.1,360.1 L626.1,591.3" stroke="#CDB54F" stroke-opacity=".5" stroke-width="1.6"/>
<path d="M401.5,363.5 L401.5,587.5" stroke="#D9C25C" stroke-opacity=".5" stroke-width="1.6"/>
<path d="M622.5,363.5 L622.5,587.5" stroke="#CDB54F" stroke-opacity=".5" stroke-width="1.6"/>
<path d="M404.8,366.7 L404.8,583.9" stroke="#D9C25C" stroke-opacity=".5" stroke-width="1.6"/>
<path d="M619.2,366.7 L619.2,583.9" stroke="#CDB54F" stroke-opacity=".5" stroke-width="1.6"/>
<path d="M408,369.8 L408,580.6" stroke="#D9C25C" stroke-opacity=".5" stroke-width="1.6"/>
<path d="M616,369.8 L616,580.6" stroke="#CDB54F" stroke-opacity=".5" stroke-width="1.6"/>
<path d="M411,372.7 L411,577.4" stroke="#D9C25C" stroke-opacity=".5" stroke-width="1.6"/>
<path d="M613,372.7 L613,577.4" stroke="#CDB54F" stroke-opacity=".5" stroke-width="1.6"/>
<path d="M413.8,375.4 L413.8,574.4" stroke="#D9C25C" stroke-opacity=".5" stroke-width="1.6"/>
<path d="M610.2,375.4 L610.2,574.4" stroke="#CDB54F" stroke-opacity=".5" stroke-width="1.6"/>
<path d="M416.5,378 L416.5,571.6" stroke="#D9C25C" stroke-opacity=".5" stroke-width="1.5"/>
<path d="M607.5,378 L607.5,571.6" stroke="#CDB54F" stroke-opacity=".5" stroke-width="1.5"/>
<path d="M419,380.4 L419,568.9" stroke="#D9C25C" stroke-opacity=".5" stroke-width="1.5"/>
<path d="M605,380.4 L605,568.9" stroke="#CDB54F" stroke-opacity=".5" stroke-width="1.5"/>
<path d="M421.4,382.7 L421.4,566.3" stroke="#D9C25C" stroke-opacity=".5" stroke-width="1.5"/>
<path d="M602.6,382.7 L602.6,566.3" stroke="#CDB54F" stroke-opacity=".5" stroke-width="1.5"/>
<path d="M423.7,384.9 L423.7,563.9" stroke="#D9C25C" stroke-opacity=".5" stroke-width="1.5"/>
<path d="M600.3,384.9 L600.3,563.9" stroke="#CDB54F" stroke-opacity=".5" stroke-width="1.5"/>
<path d="M425.8,387 L425.8,561.6" stroke="#D9C25C" stroke-opacity=".5" stroke-width="1.5"/>
<path d="M598.2,387 L598.2,561.6" stroke="#CDB54F" stroke-opacity=".5" stroke-width="1.5"/>
<path d="M427.9,389 L427.9,559.4" stroke="#D9C25C" stroke-opacity=".5" stroke-width="1.5"/>
<path d="M596.1,389 L596.1,559.4" stroke="#CDB54F" stroke-opacity=".5" stroke-width="1.5"/>
<path d="M429.8,390.8 L429.8,557.3" stroke="#D9C25C" stroke-opacity=".5" stroke-width="1.5"/>
<path d="M594.2,390.8 L594.2,557.3" stroke="#CDB54F" stroke-opacity=".5" stroke-width="1.5"/>
<path d="M431.7,392.7 L431.7,555.3" stroke="#D9C25C" stroke-opacity=".5" stroke-width="1.5"/>
<path d="M592.3,392.7 L592.3,555.3" stroke="#CDB54F" stroke-opacity=".5" stroke-width="1.5"/>
<path d="M433.5,394.4 L433.5,553.4" stroke="#D9C25C" stroke-opacity=".5" stroke-width="1.5"/>
<path d="M590.5,394.4 L590.5,553.4" stroke="#CDB54F" stroke-opacity=".5" stroke-width="1.5"/>
<path d="M435.2,396 L435.2,551.6" stroke="#D9C25C" stroke-opacity=".5" stroke-width="1.5"/>
<path d="M588.8,396 L588.8,551.6" stroke="#CDB54F" stroke-opacity=".5" stroke-width="1.5"/>
<path d="M436.9,397.6 L436.9,549.9" stroke="#D9C25C" stroke-opacity=".5" stroke-width="1.5"/>
<path d="M587.1,397.6 L587.1,549.9" stroke="#CDB54F" stroke-opacity=".5" stroke-width="1.5"/>
<path d="M438.4,399.1 L438.4,548.2" stroke="#D9C25C" stroke-opacity=".5" stroke-width="1.5"/>
<path d="M585.6,399.1 L585.6,548.2" stroke="#CDB54F" stroke-opacity=".5" stroke-width="1.5"/>
<path d="M439.9,400.6 L439.9,546.6" stroke="#D9C25C" stroke-opacity=".5" stroke-width="1.5"/>
<path d="M584.1,400.6 L584.1,546.6" stroke="#CDB54F" stroke-opacity=".5" stroke-width="1.5"/>
<path d="M441.4,402 L441.4,545.1" stroke="#D9C25C" stroke-opacity=".5" stroke-width="1.5"/>
<path d="M582.6,402 L582.6,545.1" stroke="#CDB54F" stroke-opacity=".5" stroke-width="1.5"/>
<path d="M447.4,403.3 L447.4,543.6" stroke="#C9B04E" stroke-opacity=".45" stroke-width="1"/>
<path d="M451.5,403.3 L451.5,543.6" stroke="#C9B04E" stroke-opacity=".45" stroke-width="1"/>
<path d="M455.7,403.3 L455.7,543.6" stroke="#C9B04E" stroke-opacity=".45" stroke-width="1"/>
<path d="M459.8,403.3 L459.8,543.6" stroke="#C9B04E" stroke-opacity=".45" stroke-width="1"/>
<path d="M463.9,403.3 L463.9,543.6" stroke="#C9B04E" stroke-opacity=".45" stroke-width="1"/>
<path d="M468.1,403.3 L468.1,543.6" stroke="#C9B04E" stroke-opacity=".45" stroke-width="1"/>
<path d="M472.2,403.3 L472.2,543.6" stroke="#C9B04E" stroke-opacity=".45" stroke-width="1"/>
<path d="M476.4,403.3 L476.4,543.6" stroke="#C9B04E" stroke-opacity=".45" stroke-width="1"/>
<path d="M480.5,403.3 L480.5,543.6" stroke="#C9B04E" stroke-opacity=".45" stroke-width="1"/>
<path d="M484.6,403.3 L484.6,543.6" stroke="#C9B04E" stroke-opacity=".45" stroke-width="1"/>
<path d="M488.8,403.3 L488.8,543.6" stroke="#C9B04E" stroke-opacity=".45" stroke-width="1"/>
<path d="M492.9,403.3 L492.9,543.6" stroke="#C9B04E" stroke-opacity=".45" stroke-width="1"/>
<path d="M497.1,403.3 L497.1,543.6" stroke="#C9B04E" stroke-opacity=".45" stroke-width="1"/>
<path d="M501.2,403.3 L501.2,543.6" stroke="#C9B04E" stroke-opacity=".45" stroke-width="1"/>
<path d="M505.3,403.3 L505.3,543.6" stroke="#C9B04E" stroke-opacity=".45" stroke-width="1"/>
<path d="M509.5,403.3 L509.5,543.6" stroke="#C9B04E" stroke-opacity=".45" stroke-width="1"/>
<path d="M513.6,403.3 L513.6,543.6" stroke="#C9B04E" stroke-opacity=".45" stroke-width="1"/>
<path d="M517.8,403.3 L517.8,543.6" stroke="#C9B04E" stroke-opacity=".45" stroke-width="1"/>
<path d="M521.9,403.3 L521.9,543.6" stroke="#C9B04E" stroke-opacity=".45" stroke-width="1"/>
<path d="M526,403.3 L526,543.6" stroke="#C9B04E" stroke-opacity=".45" stroke-width="1"/>
<path d="M530.2,403.3 L530.2,543.6" stroke="#C9B04E" stroke-opacity=".45" stroke-width="1"/>
<path d="M534.3,403.3 L534.3,543.6" stroke="#C9B04E" stroke-opacity=".45" stroke-width="1"/>
<path d="M538.5,403.3 L538.5,543.6" stroke="#C9B04E" stroke-opacity=".45" stroke-width="1"/>
<path d="M542.6,403.3 L542.6,543.6" stroke="#C9B04E" stroke-opacity=".45" stroke-width="1"/>
<path d="M546.7,403.3 L546.7,543.6" stroke="#C9B04E" stroke-opacity=".45" stroke-width="1"/>
<path d="M550.9,403.3 L550.9,543.6" stroke="#C9B04E" stroke-opacity=".45" stroke-width="1"/>
<path d="M555,403.3 L555,543.6" stroke="#C9B04E" stroke-opacity=".45" stroke-width="1"/>
<path d="M559.2,403.3 L559.2,543.6" stroke="#C9B04E" stroke-opacity=".45" stroke-width="1"/>
<path d="M563.3,403.3 L563.3,543.6" stroke="#C9B04E" stroke-opacity=".45" stroke-width="1"/>
<path d="M567.4,403.3 L567.4,543.6" stroke="#C9B04E" stroke-opacity=".45" stroke-width="1"/>
<path d="M571.6,403.3 L571.6,543.6" stroke="#C9B04E" stroke-opacity=".45" stroke-width="1"/>
<path d="M575.7,403.3 L575.7,543.6" stroke="#C9B04E" stroke-opacity=".45" stroke-width="1"/>
<path d="M579.9,403.3 L579.9,543.6" stroke="#C9B04E" stroke-opacity=".45" stroke-width="1"/>
<path d="M442.8,410.2 L517.5,410.2 L517.5,543.6 L442.8,543.6 Z" fill="#7A6320"/>
<path d="M442.8,410.2 L517.5,410.2 L517.5,543.6 L442.8,543.6 Z" fill="url(#deep)"/>
<path d="M788.9,299.8 L728.7,336.8 L728.7,700.4 L788.9,764.4 Z" fill="#8A7028"/>
<path d="M788.9,299.8 L728.7,336.8 L728.7,700.4 L788.9,764.4 Z" fill="url(#doorway)"/>
<path d="M788.9,299.8 L728.7,336.8 L728.7,700.4 L788.9,764.4 Z" fill="none" stroke="#2B1607" stroke-opacity=".7" stroke-width="2.4"/>
<path d="M187.5,157.3 L836.5,157.3" stroke="#B4A97A" stroke-opacity=".7" stroke-width="1.9"/>
<path d="M289.9,256 L734.1,256" stroke="#B4A97A" stroke-opacity=".7" stroke-width="1.6"/>
<path d="M343.1,307.3 L680.9,307.3" stroke="#B4A97A" stroke-opacity=".7" stroke-width="1.4"/>
<path d="M375.8,338.8 L648.2,338.8" stroke="#B4A97A" stroke-opacity=".7" stroke-width="1.4"/>
<path d="M397.9,360.1 L626.1,360.1" stroke="#B4A97A" stroke-opacity=".7" stroke-width="1.3"/>
<path d="M413.8,375.4 L610.2,375.4" stroke="#B4A97A" stroke-opacity=".7" stroke-width="1.3"/>
<path d="M425.8,387 L598.2,387" stroke="#B4A97A" stroke-opacity=".7" stroke-width="1.2"/>
<path d="M435.2,396 L588.8,396" stroke="#B4A97A" stroke-opacity=".7" stroke-width="1.2"/>
<path d="M-4,-110 L452.7,403.3" stroke="#B4A97A" stroke-opacity=".7" stroke-width="1.6"/>
<path d="M168,-110 L472.4,403.3" stroke="#B4A97A" stroke-opacity=".7" stroke-width="1.6"/>
<path d="M340,-110 L492.2,403.3" stroke="#B4A97A" stroke-opacity=".7" stroke-width="1.6"/>
<path d="M512,-110 L512,403.3" stroke="#B4A97A" stroke-opacity=".7" stroke-width="1.6"/>
<path d="M684,-110 L531.8,403.3" stroke="#B4A97A" stroke-opacity=".7" stroke-width="1.6"/>
<path d="M856,-110 L551.6,403.3" stroke="#B4A97A" stroke-opacity=".7" stroke-width="1.6"/>
<path d="M1028,-110 L571.3,403.3" stroke="#B4A97A" stroke-opacity=".7" stroke-width="1.6"/>
<path d="M362.7,-77.9 L661.3,-77.9 L605.9,125.3 L418.1,125.3 Z" fill="#D4D0A6" stroke="#2B1607" stroke-opacity=".85" stroke-width="2.3"/>
<path d="M374.9,-67.8 L643.6,-67.8 L593.8,115.1 L424.7,115.1 Z" fill="#F3F7D8"/>
<path d="M415.4,3.4 L608.6,3.4" stroke="#FFFFFF" stroke-opacity=".7" stroke-width="2.9"/>
<path d="M425.5,52.1 L598.5,52.1" stroke="#FFFFFF" stroke-opacity=".7" stroke-width="2.9"/>
<path d="M37.8,-77.9 L336.3,-77.9 L401.4,125.3 L213.6,125.3 Z" fill="#D4D0A6" stroke="#2B1607" stroke-opacity=".85" stroke-width="2.3"/>
<path d="M56,-67.8 L324.6,-67.8 L383.3,115.1 L214.2,115.1 Z" fill="#F3F7D8"/>
<path d="M138.6,3.4 L331.8,3.4" stroke="#FFFFFF" stroke-opacity=".7" stroke-width="2.9"/>
<path d="M177.6,52.1 L350.7,52.1" stroke="#FFFFFF" stroke-opacity=".7" stroke-width="2.9"/>
<path d="M687.7,-77.9 L986.2,-77.9 L810.4,125.3 L622.6,125.3 Z" fill="#D4D0A6" stroke="#2B1607" stroke-opacity=".85" stroke-width="2.3"/>
<path d="M693.8,-67.8 L962.5,-67.8 L804.2,115.1 L635.2,115.1 Z" fill="#F3F7D8"/>
<path d="M692.2,3.4 L885.4,3.4" stroke="#FFFFFF" stroke-opacity=".7" stroke-width="2.9"/>
<path d="M673.3,52.1 L846.4,52.1" stroke="#FFFFFF" stroke-opacity=".7" stroke-width="2.9"/>
<path d="M455.4,262.1 L568.6,262.1 L558,301.2 L466,301.2 Z" fill="#D4D0A6" stroke="#2B1607" stroke-opacity=".85" stroke-width="1.5"/>
<path d="M460.5,264.1 L562.4,264.1 L552.9,299.2 L470.1,299.2 Z" fill="#F3F7D8"/>
<path d="M472.2,277.8 L551.8,277.8" stroke="#FFFFFF" stroke-opacity=".7" stroke-width="1.7"/>
<path d="M474.1,287.1 L549.9,287.1" stroke="#FFFFFF" stroke-opacity=".7" stroke-width="1.7"/>
<path d="M332.1,262.1 L445.3,262.1 L457.9,301.2 L365.9,301.2 Z" fill="#D4D0A6" stroke="#2B1607" stroke-opacity=".85" stroke-width="1.5"/>
<path d="M338.4,264.1 L440.3,264.1 L451.6,299.2 L368.8,299.2 Z" fill="#F3F7D8"/>
<path d="M358.2,277.8 L437.8,277.8" stroke="#FFFFFF" stroke-opacity=".7" stroke-width="1.7"/>
<path d="M365.7,287.1 L441.4,287.1" stroke="#FFFFFF" stroke-opacity=".7" stroke-width="1.7"/>
<path d="M578.7,262.1 L691.9,262.1 L658.1,301.2 L566.1,301.2 Z" fill="#D4D0A6" stroke="#2B1607" stroke-opacity=".85" stroke-width="1.5"/>
<path d="M582.6,264.1 L684.5,264.1 L654.2,299.2 L571.4,299.2 Z" fill="#F3F7D8"/>
<path d="M586.2,277.8 L665.8,277.8" stroke="#FFFFFF" stroke-opacity=".7" stroke-width="1.7"/>
<path d="M582.6,287.1 L658.3,287.1" stroke="#FFFFFF" stroke-opacity=".7" stroke-width="1.7"/>
<path d="M477,341.3 L547,341.3 L542.6,357.5 L481.4,357.5 Z" fill="#D4D0A6" stroke="#2B1607" stroke-opacity=".85" stroke-width="1.3"/>
<path d="M480.2,342.1 L543.3,342.1 L539.4,356.7 L484.2,356.7 Z" fill="#F3F7D8"/>
<path d="M486.7,347.8 L537.3,347.8" stroke="#FFFFFF" stroke-opacity=".7" stroke-width="1.4"/>
<path d="M487.5,351.7 L536.5,351.7" stroke="#FFFFFF" stroke-opacity=".7" stroke-width="1.4"/>
<path d="M400.6,341.3 L470.7,341.3 L475.9,357.5 L414.6,357.5 Z" fill="#D4D0A6" stroke="#2B1607" stroke-opacity=".85" stroke-width="1.3"/>
<path d="M404.4,342.1 L467.5,342.1 L472.2,356.7 L417,356.7 Z" fill="#F3F7D8"/>
<path d="M414.2,347.8 L464.8,347.8" stroke="#FFFFFF" stroke-opacity=".7" stroke-width="1.4"/>
<path d="M417.3,351.7 L466.3,351.7" stroke="#FFFFFF" stroke-opacity=".7" stroke-width="1.4"/>
<path d="M553.3,341.3 L623.4,341.3 L609.4,357.5 L548.1,357.5 Z" fill="#D4D0A6" stroke="#2B1607" stroke-opacity=".85" stroke-width="1.3"/>
<path d="M556.1,342.1 L619.2,342.1 L606.6,356.7 L551.4,356.7 Z" fill="#F3F7D8"/>
<path d="M559.2,347.8 L609.8,347.8" stroke="#FFFFFF" stroke-opacity=".7" stroke-width="1.4"/>
<path d="M557.7,351.7 L606.7,351.7" stroke="#FFFFFF" stroke-opacity=".7" stroke-width="1.4"/>
<path d="M486.6,376.8 L537.4,376.8 L535,385.6 L489,385.6 Z" fill="#D4D0A6" stroke="#2B1607" stroke-opacity=".85" stroke-width="1.2"/>
<path d="M489,377.2 L534.7,377.2 L532.6,385.1 L491.2,385.1 Z" fill="#F3F7D8"/>
<path d="M493.4,380.3 L530.6,380.3" stroke="#FFFFFF" stroke-opacity=".7" stroke-width="1.3"/>
<path d="M493.9,382.4 L530.1,382.4" stroke="#FFFFFF" stroke-opacity=".7" stroke-width="1.3"/>
<path d="M431.3,376.8 L482.1,376.8 L484.9,385.6 L438.9,385.6 Z" fill="#D4D0A6" stroke="#2B1607" stroke-opacity=".85" stroke-width="1.2"/>
<path d="M434,377.2 L479.7,377.2 L482.2,385.1 L440.9,385.1 Z" fill="#F3F7D8"/>
<path d="M440.2,380.3 L477.4,380.3" stroke="#FFFFFF" stroke-opacity=".7" stroke-width="1.3"/>
<path d="M441.9,382.4 L478.2,382.4" stroke="#FFFFFF" stroke-opacity=".7" stroke-width="1.3"/>
<path d="M541.9,376.8 L592.7,376.8 L585.1,385.6 L539.1,385.6 Z" fill="#D4D0A6" stroke="#2B1607" stroke-opacity=".85" stroke-width="1.2"/>
<path d="M544.1,377.2 L589.8,377.2 L582.9,385.1 L541.5,385.1 Z" fill="#F3F7D8"/>
<path d="M546.6,380.3 L583.8,380.3" stroke="#FFFFFF" stroke-opacity=".7" stroke-width="1.3"/>
<path d="M545.8,382.4 L582.1,382.4" stroke="#FFFFFF" stroke-opacity=".7" stroke-width="1.3"/>
<path d="M-90,-110 L442.8,403.3" stroke="#2B1607" stroke-opacity=".85" stroke-width="3"/>
<path d="M1114,-110 L581.2,403.3" stroke="#2B1607" stroke-opacity=".85" stroke-width="3"/>
<path d="M-90,1110 L442.8,543.6" stroke="#2B1607" stroke-opacity=".85" stroke-width="3"/>
<path d="M1114,1110 L581.2,543.6" stroke="#2B1607" stroke-opacity=".85" stroke-width="3"/>
<path d="M442.8,403.3 L581.2,403.3 L581.2,543.6 L442.8,543.6 Z" fill="none" stroke="#2B1607" stroke-opacity=".85" stroke-width="2.4"/>
<path d="M-90,-110 L442.8,403.3 L442.8,543.6 L-90,1110 Z" fill="url(#wallLight)"/>
<path d="M1114,-110 L581.2,403.3 L581.2,543.6 L1114,1110 Z" fill="url(#wallLight)"/>
<path d="M-90,1020 L442.8,533.3 L442.8,543.6 L-90,1110 Z" fill="url(#footL)"/>
<path d="M1114,1020 L581.2,533.3 L581.2,543.6 L1114,1110 Z" fill="url(#footL)"/>
<circle cx="512" cy="470" r="560" fill="url(#haze)"/>
<rect width="1024" height="1024" fill="url(#vignette)"/>
</svg>