<svg xmlns="http://www.w3.org/2000/svg" xmlns:xlink="http://www.w3.org/1999/xlink" viewBox="0 0 1024 1024" width="1024" height="1024">
<defs>
<g id="spk"><g><path d="m20.1 1.8c.2 .7 .7 2.5 1 3.7 .4 1.2 .6 2.5 .9 3.7 .4 1.2 .7 2.4 1.1 3.6 .3 1.1 .8 2.8 1 3.4 .6 .2 2.3 .6 3.5 .9 1.1 .3 2.3 .5 3.4 .8 1.1 .3 2.3 .6 3.4 .9 1.1 .3 2.8 .8 3.4 1-.6 .2-2.3 .6-3.5 .9-1.1 .3-2.3 .6-3.4 1-1.1 .4-2.1 .9-3.3 1.3-1.1 .4-2.8 .9-3.4 1.1-.2 .5-.7 2.1-1.1 3.3-.3 1.1-.7 2.3-1 3.4-.4 1.2-.7 2.3-1 3.5-.4 1.1-1 2.9-1.2 3.5-.1-.6-.5-2.4-.9-3.5-.3-1.2-.6-2.3-1-3.5-.3-1.1-.6-2.3-.9-3.4-.3-1.2-.8-2.9-1-3.5-.6-.2-2.5-.7-3.7-1-1.2-.4-2.4-.7-3.5-1-1.2-.4-2.3-.8-3.4-1.1-1.1-.4-2.8-.8-3.4-1 .6-.1 2.3-.6 3.4-.9 1.1-.4 2.2-.6 3.3-1 1.2-.3 2.3-.6 3.5-.9 1.2-.4 3-.8 3.6-.9 .2-.6 .8-2.3 1.2-3.5 .3-1.1 .6-2.3 1-3.5 .3-1.2 .6-2.4 1-3.6 .3-1.2 .8-3 1-3.7z" fill="url(#holo)" stroke="none" stroke-width="0" stroke-linejoin="round" stroke-linecap="round" /><path d="m23.2 20.2c0 .2-.1 .8-.2 1.2-.2 .3-.4 .7-.7 .9-.2 .3-.6 .5-1 .6-.3 .2-.9 .2-1.1 .2-.2 0-.9-.1-1.2-.3-.4-.1-.7-.4-1-.7-.3-.3-.5-.6-.6-1-.2-.4-.3-1-.3-1.2 0-.2 0-.7 .2-1.1 .1-.3 .3-.6 .6-.9 .3-.2 .6-.4 1-.6 .4-.1 1-.1 1.2-.2 .3 .1 .9 .2 1.3 .3 .3 .2 .7 .4 .9 .7 .3 .2 .5 .6 .7 .9 .1 .4 .2 1 .2 1.2z" fill="url(#holo)"/></g></g>
<radialGradient id="hbg" cx="50%" cy="44%" r="74%"><stop offset="0" stop-color="#4B1748"/><stop offset=".42" stop-color="#230A22"/><stop offset="1" stop-color="#08030A"/></radialGradient>
<linearGradient id="hbeam" x1="0" y1="0" x2="0" y2="1"><stop offset="0" stop-color="#FF7AB6" stop-opacity=".24"/><stop offset=".55" stop-color="#FF7AB6" stop-opacity=".07"/><stop offset=".85" stop-color="#FF7AB6" stop-opacity="0"/></linearGradient>
<radialGradient id="hplinth"><stop offset="0" stop-color="#E84D7F" stop-opacity=".55"/><stop offset=".5" stop-color="#E84D7F" stop-opacity=".18"/><stop offset=".72" stop-color="#E84D7F" stop-opacity="0"/></radialGradient>
<linearGradient id="floorfade" x1="0" y1="0" x2="0" y2="1"><stop offset="0" stop-color="#14071A"/><stop offset=".55" stop-color="#14071A" stop-opacity=".35"/><stop offset="1" stop-color="#14071A" stop-opacity=".1"/></linearGradient>
<linearGradient id="holo" x1="0" y1="0" x2="1" y2="1" spreadMethod="reflect">
<stop offset="0" stop-color="#FF78B6"/><stop offset=".17" stop-color="#C79BFF"/><stop offset=".34" stop-color="#7BD9FF"/><stop offset=".5" stop-color="#B4FFE0"/><stop offset=".66" stop-color="#FFE597"/><stop offset=".83" stop-color="#FF9BCB"/><stop offset="1" stop-color="#C79BFF"/>
<animateTransform attributeName="gradientTransform" type="translate" from="0 0" to="2 2" dur="7s" repeatCount="indefinite"/></linearGradient>
<linearGradient id="sheen" x1="0" y1="0" x2="1" y2="0"><stop offset="0" stop-color="#FFF" stop-opacity="0"/><stop offset=".28" stop-color="#FF8BC4" stop-opacity=".1"/><stop offset=".46" stop-color="#FFF" stop-opacity=".3"/><stop offset=".56" stop-color="#8EE4FF" stop-opacity=".14"/><stop offset=".72" stop-color="#FFE59A" stop-opacity=".08"/><stop offset="1" stop-color="#FFF" stop-opacity="0"/></linearGradient>
</defs>
<rect width="1024" height="1024" fill="url(#hbg)"/>
<rect y="784" width="1024" height="240" fill="#0D0610"/>
<path d="m-227 1116 106 0 110-97-87 0zm211 0 106 0 73-97-87 0zm211 0 106 0 37-97-87 0zm211 0 106 0 0-97-87 0zm212 0 105 0-37-97-87 0zm211 0 105 0-73-97-88 0zm211 0 105 0-110-97-87 0zm-1225-97 87 0 90-68-74 0zm174 0 87 0 65-68-74 0zm174 0 88 0 38-68-74 0zm175 0 87 0 13-68-74 0zm174 0 87 0-13-68-74 0zm174 0 87 0-38-68-75 0zm175 0 87 0-65-68-74 0zm174 0 87 0-90-68-75 0zm-1191-68 74 0 77-51-65 0zm148 0 75 0 57-51-64 0zm149 0 74 0 38-51-64 0zm148 0 75 0 19-51-65 0zm149 0 74 0 0-51-65 0zm148 0 74 0-19-51-64 0zm149 0 74 0-38-51-65 0zm148 0 74 0-57-51-65 0zm149 0 74 0-77-51-65 0zm-1166-51 64 0 67-39-57 0zm129 0 65 0 51-39-57 0zm129 0 65 0 37-39-57 0zm129 0 65 0 22-39-57 0zm130 0 64 0 8-39-57 0zm129 0 65 0-8-39-57 0zm129 0 65 0-22-39-58 0zm130 0 64 0-37-39-57 0zm129 0 64 0-51-39-58 0zm129 0 65 0-67-39-57 0zm-1147-39 58 0 58-31-51 0zm115 0 57 0 47-31-51 0zm114 0 58 0 35-31-51 0zm115 0 57 0 24-31-52 0zm114 0 58 0 11-31-51 0zm115 0 57 0 0-31-51 0zm114 0 57 0-11-31-52 0zm115 0 57 0-24-31-51 0zm114 0 57 0-35-31-51 0zm115 0 57 0-47-31-52 0zm114 0 57 0-58-31-52 0zm-1131-31 51 0 53-25-47 0zm102 0 52 0 43-25-47 0zm103 0 52 0 33-25-47 0zm103 0 51 0 24-25-46 0zm103 0 51 0 14-25-46 0zm102 0 52 0 4-25-46 0zm103 0 51 0-4-25-47 0zm103 0 51 0-14-25-47 0zm102 0 52 0-24-25-47 0zm103 0 51 0-33-25-47 0zm103 0 51 0-43-25-46 0zm103 0 51 0-53-25-46 0zm-1119-25 46 0 48-21-43 0zm93 0 46 0 40-21-43 0zm93 0 46 0 32-21-42 0zm93 0 47 0 23-21-42 0zm93 0 47 0 16-21-43 0zm93 0 47 0 8-21-43 0zm93 0 47 0 0-21-43 0zm94 0 46 0-8-21-42 0zm93 0 46 0-16-21-42 0zm93 0 46 0-23-21-43 0zm93 0 47 0-32-21-43 0zm93 0 47 0-40-21-43 0zm93 0 47 0-48-21-42 0z" fill="#3A2346"/>
<rect y="784" width="1024" height="240" fill="url(#floorfade)"/>
<polygon points="433 -82 590 -82 860 1126 164 1126" fill="url(#hbeam)"/>
<ellipse cx="512" cy="760" rx="340" ry="56" fill="url(#hplinth)"><animate attributeName="rx" values="340;300;340" dur="4.8s" repeatCount="indefinite" calcMode="spline" keySplines=".45 0 .55 1;.45 0 .55 1"/><animate attributeName="opacity" values="1;.72;1" dur="4.8s" repeatCount="indefinite" calcMode="spline" keySplines=".45 0 .55 1;.45 0 .55 1"/></ellipse>
<g transform="translate(174.1 368.6) scale(1.3)"><g transform="translate(20 20)"><g><animateTransform attributeName="transform" type="scale" values="1;.15;1" dur="2.6s" begin="0.2s" repeatCount="indefinite" calcMode="spline" keySplines=".45 0 .55 1;.45 0 .55 1"/><animateTransform attributeName="transform" type="rotate" values="0;90" dur="2.6s" begin="0.2s" repeatCount="indefinite" additive="sum"/><use href="#spk" xlink:href="#spk" transform="translate(-20 -20)"/></g></g></g>
<g transform="translate(849.9 307.2) scale(1.1)"><g transform="translate(20 20)"><g><animateTransform attributeName="transform" type="scale" values="1;.15;1" dur="3.1s" begin="1.1s" repeatCount="indefinite" calcMode="spline" keySplines=".45 0 .55 1;.45 0 .55 1"/><animateTransform attributeName="transform" type="rotate" values="0;90" dur="3.1s" begin="1.1s" repeatCount="indefinite" additive="sum"/><use href="#spk" xlink:href="#spk" transform="translate(-20 -20)"/></g></g></g>
<g transform="translate(880.6 614.4) scale(1.4)"><g transform="translate(20 20)"><g><animateTransform attributeName="transform" type="scale" values="1;.15;1" dur="2.3s" begin="0.6s" repeatCount="indefinite" calcMode="spline" keySplines=".45 0 .55 1;.45 0 .55 1"/><animateTransform attributeName="transform" type="rotate" values="0;90" dur="2.3s" begin="0.6s" repeatCount="indefinite" additive="sum"/><use href="#spk" xlink:href="#spk" transform="translate(-20 -20)"/></g></g></g>
<g transform="translate(133.1 634.9) scale(1)"><g transform="translate(20 20)"><g><animateTransform attributeName="transform" type="scale" values="1;.15;1" dur="2.9s" begin="1.6s" repeatCount="indefinite" calcMode="spline" keySplines=".45 0 .55 1;.45 0 .55 1"/><animateTransform attributeName="transform" type="rotate" values="0;90" dur="2.9s" begin="1.6s" repeatCount="indefinite" additive="sum"/><use href="#spk" xlink:href="#spk" transform="translate(-20 -20)"/></g></g></g>
<g transform="translate(737.3 133.1) scale(0.8)"><g transform="translate(20 20)"><g><animateTransform attributeName="transform" type="scale" values="1;.15;1" dur="2.2s" begin="0.9s" repeatCount="indefinite" calcMode="spline" keySplines=".45 0 .55 1;.45 0 .55 1"/><animateTransform attributeName="transform" type="rotate" values="0;90" dur="2.2s" begin="0.9s" repeatCount="indefinite" additive="sum"/><use href="#spk" xlink:href="#spk" transform="translate(-20 -20)"/></g></g></g>
<g transform="translate(307.2 153.6) scale(0.7)"><g transform="translate(20 20)"><g><animateTransform attributeName="transform" type="scale" values="1;.15;1" dur="3.4s" begin="2.1s" repeatCount="indefinite" calcMode="spline" keySplines=".45 0 .55 1;.45 0 .55 1"/><animateTransform attributeName="transform" type="rotate" values="0;90" dur="3.4s" begin="2.1s" repeatCount="indefinite" additive="sum"/><use href="#spk" xlink:href="#spk" transform="translate(-20 -20)"/></g></g></g>
<g transform="translate(655.4 757.8) scale(0.6)"><g transform="translate(20 20)"><g><animateTransform attributeName="transform" type="scale" values="1;.15;1" dur="2.7s" begin="1.4s" repeatCount="indefinite" calcMode="spline" keySplines=".45 0 .55 1;.45 0 .55 1"/><animateTransform attributeName="transform" type="rotate" values="0;90" dur="2.7s" begin="1.4s" repeatCount="indefinite" additive="sum"/><use href="#spk" xlink:href="#spk" transform="translate(-20 -20)"/></g></g></g>
<g transform="translate(245.8 819.2) scale(0.8)"><g transform="translate(20 20)"><g><animateTransform attributeName="transform" type="scale" values="1;.15;1" dur="3s" begin="0.4s" repeatCount="indefinite" calcMode="spline" keySplines=".45 0 .55 1;.45 0 .55 1"/><animateTransform attributeName="transform" type="rotate" values="0;90" dur="3s" begin="0.4s" repeatCount="indefinite" additive="sum"/><use href="#spk" xlink:href="#spk" transform="translate(-20 -20)"/></g></g></g>
<g><animateTransform attributeName="transform" type="translate" values="0 0;0 -12;0 0" dur="4.8s" repeatCount="indefinite" calcMode="spline" keySplines=".45 0 .55 1;.45 0 .55 1"/><g transform="translate(512 520) scale(0.9) translate(-512 -520)"><g transform="translate(102.4 241) scale(5.5)"><defs><clipPath id="emoliplow"><path d="m14.1 56.3c.4 .1 1.4 .4 2.4 .6 1.1 .2 2.5 .4 3.8 .6 1.3 .3 2.6 .5 4 .8 1.3 .2 3.3 .6 4 .7 .6 .1 2.3 .5 3.4 .6 1.2 .2 2.3 .2 3.4 .3 1.2 .1 2.4 .2 3.6 .3 1.2 .1 2.5 .3 3.7 .3 1.1 0 2.8-.1 3.4-.1 .7 .1 2.8 .1 4.3 .2 1.4 .1 2.8 .2 4.2 .2 1.3 .1 2.6 0 3.8 .1 1.3 0 3.1 0 3.7 0 .6 0 2.3 0 3.4 .1 1.1 0 2.1 0 3.2 .1 1.1 0 2.1 .2 3.2 .4 1.1 .1 2.9 .2 3.4 .3 .7 0 2.7 0 3.9 0 1.3-.1 2.3-.2 3.5-.3 1.2-.1 2.3-.3 3.6-.4 1.3-.1 3.4-.4 4.1-.5 .6-.1 2.4-.4 3.7-.6 1.3-.2 2.7-.4 4.1-.6 1.3-.2 2.8-.4 4.2-.6 1.4-.2 3.5-.5 4.3-.6 .6-.2 2.5-.7 3.8-1 1.2-.3 2.5-.7 3.8-1 1.2-.4 2.5-.9 3.8-1.3 1.3-.4 3.2-1 3.9-1.2 .7-.2 2.6-.8 4-1.2 1.5-.5 3.2-1.1 4.8-1.6 1.6-.5 3.3-1 4.6-1.4 1.3-.3 2.6-.6 3.1-.8l0 0c-.1 .4-.5 1.3-1 2.1-.4 .8-.9 1.8-1.4 2.8-.6 1-1.2 1.9-1.8 2.9-.6 1-1.6 2.5-1.9 3-.4 .5-1.3 2-2 3-.6 1-1.2 1.9-1.9 2.8-.7 .9-1.3 1.9-2.1 2.7-.9 .9-2.5 2.2-3 2.6-.5 .5-2.2 1.9-3.2 2.8-1 .9-1.9 1.9-2.9 2.8-.9 .9-1.8 1.6-2.9 2.5-1.1 .8-2.9 2-3.5 2.4-.6 .3-2.4 1.4-3.6 2-1.2 .6-2.5 1-3.8 1.5-1.3 .5-2.5 .9-3.8 1.4-1.3 .4-3.4 1.1-4.1 1.3-.7 .1-2.9 .3-4.3 .5-1.4 .1-2.8 .3-4.1 .5-1.4 .2-2.8 .5-4.1 .8-1.4 .3-3.4 .7-4.1 .8-.7 0-2.7 .1-4 .1-1.2 0-2.3 0-3.5-.1-1.1 0-2.2-.1-3.4-.2-1.2-.1-3-.3-3.6-.4-.6-.1-2.4-.4-3.7-.6-1.3-.2-2.6-.5-4-.8-1.4-.3-2.9-.8-4.3-1.2-1.3-.4-3.4-1.1-4.1-1.4-.7-.3-2.9-1.1-4.3-1.7-1.4-.6-2.6-1.2-3.9-1.9-1.3-.6-2.4-1.4-3.7-2.1-1.3-.7-3.2-1.8-3.8-2.2-.5-.5-2.1-2-3-3-1-1-1.8-2-2.7-2.9-.9-1-1.9-1.8-2.8-2.7-.9-.9-2-2.2-2.4-2.7-.4-.4-1.6-1.8-2.4-2.6-.8-1-1.6-1.9-2.3-2.8-.6-.8-1.2-1.7-1.7-2.5-.4-.7-.8-1.6-1-1.9z"/></clipPath><clipPath id="emolipup"><path d="m14.1 56.3c.2-.2 .9-.8 1.5-1.3 .5-.6 1.2-1.2 1.9-1.9 .7-.6 1.3-1.2 2-1.9 .8-.7 2-2 2.4-2.4 .4-.4 1.6-1.5 2.5-2.3 1-.7 2.1-1.5 3.2-2.3 1.1-.8 2.3-1.6 3.4-2.4 1-.7 2.6-1.6 3.2-1.9 .5-.3 2-1.1 3.1-1.7 1.1-.6 2.2-1.3 3.2-2 1-.6 2-1.2 3-1.7 1-.5 2.4-.9 2.9-1.1 .5-.1 2.1-.5 3.1-.7 1.1-.2 2.3-.3 3.2-.5 .9-.1 1.7-.2 2.5-.3 .8-.1 1.9-.2 2.3-.2 .3 0 1.5 0 2.3 .1 .7 0 1.4 .2 2.1 .3 .6 .2 1.2 .4 1.9 .6 .6 .2 1.7 .6 2 .8 .4 .2 1.5 .7 2.2 1.2 .8 .5 1.5 1.1 2.3 1.7 .8 .5 1.6 1.2 2.4 1.6 .7 .4 1.9 .5 2.3 .6 .3-.2 1.3-.6 1.9-1.1 .7-.5 1.2-1.3 1.9-1.9 .8-.6 1.6-1.2 2.4-1.7 .8-.5 2.2-1.1 2.7-1.3 .4-.1 1.8-.5 2.7-.7 .9-.2 1.8-.3 2.6-.4 .9-.2 1.6-.3 2.5-.4 .8 0 2.2-.1 2.6-.1 .5 0 1.8 .1 2.7 .1 .9 .1 1.7 .1 2.7 .2 1 .2 2.1 .4 3.1 .6 1.1 .2 2.7 .6 3.3 .7 .5 .1 2 .4 3.1 .7 1.1 .4 2.3 .8 3.5 1.3 1.1 .5 2.1 1.1 3.2 1.6 1 .5 2.4 1.3 2.9 1.6 .5 .2 2 1 2.9 1.4 1 .5 1.9 .9 2.8 1.4 .9 .5 1.8 .9 2.7 1.4 .9 .6 2.3 1.4 2.8 1.7 .4 .2 1.7 1 2.5 1.4 .8 .5 1.6 .9 2.4 1.4 .7 .4 1.4 .9 2 1.3 .5 .3 1.1 .8 1.3 .9l0 0c-.5 .2-1.8 .5-3.1 .8-1.3 .4-3 .9-4.6 1.4-1.6 .5-3.3 1.1-4.8 1.6-1.4 .4-3.3 1-4 1.2-.7 .2-2.6 .8-3.9 1.2-1.3 .4-2.6 .9-3.8 1.3-1.3 .3-2.6 .7-3.8 1-1.3 .3-3.2 .8-3.8 1-.8 .1-2.9 .4-4.3 .6-1.4 .2-2.9 .4-4.2 .6-1.4 .2-2.8 .4-4.1 .6-1.3 .2-3.1 .5-3.7 .6-.7 .1-2.8 .4-4.1 .5-1.3 .1-2.4 .3-3.6 .4-1.2 .1-2.2 .2-3.5 .3-1.2 0-3.2 0-3.9 0-.5-.1-2.3-.2-3.4-.3-1.1-.2-2.1-.4-3.2-.4-1.1-.1-2.1-.1-3.2-.1-1.1-.1-2.8-.1-3.4-.1-.6 0-2.4 0-3.7 0-1.2-.1-2.5 0-3.8-.1-1.4 0-2.8-.1-4.2-.2-1.5-.1-3.6-.1-4.3-.2-.6 0-2.3 .1-3.4 .1-1.2 0-2.5-.2-3.7-.3-1.2-.1-2.4-.2-3.6-.3-1.1-.1-2.2-.1-3.4-.3-1.1-.1-2.8-.5-3.4-.6-.7-.1-2.7-.5-4-.7-1.4-.3-2.7-.5-4-.8-1.3-.2-2.7-.4-3.8-.6-1-.2-2-.5-2.4-.6z"/></clipPath></defs><g id="emolipcard"><path d="m14.1 56.3c.4 .1 1.4 .4 2.4 .6 1.1 .2 2.5 .4 3.8 .6 1.3 .3 2.6 .5 4 .8 1.3 .2 3.3 .6 4 .7 .6 .1 2.3 .5 3.4 .6 1.2 .2 2.3 .2 3.4 .3 1.2 .1 2.4 .2 3.6 .3 1.2 .1 2.5 .3 3.7 .3 1.1 0 2.8-.1 3.4-.1 .7 .1 2.8 .1 4.3 .2 1.4 .1 2.8 .2 4.2 .2 1.3 .1 2.6 0 3.8 .1 1.3 0 3.1 0 3.7 0 .6 0 2.3 0 3.4 .1 1.1 0 2.1 0 3.2 .1 1.1 0 2.1 .2 3.2 .4 1.1 .1 2.9 .2 3.4 .3 .7 0 2.7 0 3.9 0 1.3-.1 2.3-.2 3.5-.3 1.2-.1 2.3-.3 3.6-.4 1.3-.1 3.4-.4 4.1-.5 .6-.1 2.4-.4 3.7-.6 1.3-.2 2.7-.4 4.1-.6 1.3-.2 2.8-.4 4.2-.6 1.4-.2 3.5-.5 4.3-.6 .6-.2 2.5-.7 3.8-1 1.2-.3 2.5-.7 3.8-1 1.2-.4 2.5-.9 3.8-1.3 1.3-.4 3.2-1 3.9-1.2 .7-.2 2.6-.8 4-1.2 1.5-.5 3.2-1.1 4.8-1.6 1.6-.5 3.3-1 4.6-1.4 1.3-.3 2.6-.6 3.1-.8l0 0c-.1 .4-.5 1.3-1 2.1-.4 .8-.9 1.8-1.4 2.8-.6 1-1.2 1.9-1.8 2.9-.6 1-1.6 2.5-1.9 3-.4 .5-1.3 2-2 3-.6 1-1.2 1.9-1.9 2.8-.7 .9-1.3 1.9-2.1 2.7-.9 .9-2.5 2.2-3 2.6-.5 .5-2.2 1.9-3.2 2.8-1 .9-1.9 1.9-2.9 2.8-.9 .9-1.8 1.6-2.9 2.5-1.1 .8-2.9 2-3.5 2.4-.6 .3-2.4 1.4-3.6 2-1.2 .6-2.5 1-3.8 1.5-1.3 .5-2.5 .9-3.8 1.4-1.3 .4-3.4 1.1-4.1 1.3-.7 .1-2.9 .3-4.3 .5-1.4 .1-2.8 .3-4.1 .5-1.4 .2-2.8 .5-4.1 .8-1.4 .3-3.4 .7-4.1 .8-.7 0-2.7 .1-4 .1-1.2 0-2.3 0-3.5-.1-1.1 0-2.2-.1-3.4-.2-1.2-.1-3-.3-3.6-.4-.6-.1-2.4-.4-3.7-.6-1.3-.2-2.6-.5-4-.8-1.4-.3-2.9-.8-4.3-1.2-1.3-.4-3.4-1.1-4.1-1.4-.7-.3-2.9-1.1-4.3-1.7-1.4-.6-2.6-1.2-3.9-1.9-1.3-.6-2.4-1.4-3.7-2.1-1.3-.7-3.2-1.8-3.8-2.2-.5-.5-2.1-2-3-3-1-1-1.8-2-2.7-2.9-.9-1-1.9-1.8-2.8-2.7-.9-.9-2-2.2-2.4-2.7-.4-.4-1.6-1.8-2.4-2.6-.8-1-1.6-1.9-2.3-2.8-.6-.8-1.2-1.7-1.7-2.5-.4-.7-.8-1.6-1-1.9z" fill="#B8336A" stroke="none" stroke-width="0" stroke-linejoin="round" stroke-linecap="round" /><path d="m14.1 56.3c.2-.2 .9-.8 1.5-1.3 .5-.6 1.2-1.2 1.9-1.9 .7-.6 1.3-1.2 2-1.9 .8-.7 2-2 2.4-2.4 .4-.4 1.6-1.5 2.5-2.3 1-.7 2.1-1.5 3.2-2.3 1.1-.8 2.3-1.6 3.4-2.4 1-.7 2.6-1.6 3.2-1.9 .5-.3 2-1.1 3.1-1.7 1.1-.6 2.2-1.3 3.2-2 1-.6 2-1.2 3-1.7 1-.5 2.4-.9 2.9-1.1 .5-.1 2.1-.5 3.1-.7 1.1-.2 2.3-.3 3.2-.5 .9-.1 1.7-.2 2.5-.3 .8-.1 1.9-.2 2.3-.2 .3 0 1.5 0 2.3 .1 .7 0 1.4 .2 2.1 .3 .6 .2 1.2 .4 1.9 .6 .6 .2 1.7 .6 2 .8 .4 .2 1.5 .7 2.2 1.2 .8 .5 1.5 1.1 2.3 1.7 .8 .5 1.6 1.2 2.4 1.6 .7 .4 1.9 .5 2.3 .6 .3-.2 1.3-.6 1.9-1.1 .7-.5 1.2-1.3 1.9-1.9 .8-.6 1.6-1.2 2.4-1.7 .8-.5 2.2-1.1 2.7-1.3 .4-.1 1.8-.5 2.7-.7 .9-.2 1.8-.3 2.6-.4 .9-.2 1.6-.3 2.5-.4 .8 0 2.2-.1 2.6-.1 .5 0 1.8 .1 2.7 .1 .9 .1 1.7 .1 2.7 .2 1 .2 2.1 .4 3.1 .6 1.1 .2 2.7 .6 3.3 .7 .5 .1 2 .4 3.1 .7 1.1 .4 2.3 .8 3.5 1.3 1.1 .5 2.1 1.1 3.2 1.6 1 .5 2.4 1.3 2.9 1.6 .5 .2 2 1 2.9 1.4 1 .5 1.9 .9 2.8 1.4 .9 .5 1.8 .9 2.7 1.4 .9 .6 2.3 1.4 2.8 1.7 .4 .2 1.7 1 2.5 1.4 .8 .5 1.6 .9 2.4 1.4 .7 .4 1.4 .9 2 1.3 .5 .3 1.1 .8 1.3 .9l0 0c-.5 .2-1.8 .5-3.1 .8-1.3 .4-3 .9-4.6 1.4-1.6 .5-3.3 1.1-4.8 1.6-1.4 .4-3.3 1-4 1.2-.7 .2-2.6 .8-3.9 1.2-1.3 .4-2.6 .9-3.8 1.3-1.3 .3-2.6 .7-3.8 1-1.3 .3-3.2 .8-3.8 1-.8 .1-2.9 .4-4.3 .6-1.4 .2-2.9 .4-4.2 .6-1.4 .2-2.8 .4-4.1 .6-1.3 .2-3.1 .5-3.7 .6-.7 .1-2.8 .4-4.1 .5-1.3 .1-2.4 .3-3.6 .4-1.2 .1-2.2 .2-3.5 .3-1.2 0-3.2 0-3.9 0-.5-.1-2.3-.2-3.4-.3-1.1-.2-2.1-.4-3.2-.4-1.1-.1-2.1-.1-3.2-.1-1.1-.1-2.8-.1-3.4-.1-.6 0-2.4 0-3.7 0-1.2-.1-2.5 0-3.8-.1-1.4 0-2.8-.1-4.2-.2-1.5-.1-3.6-.1-4.3-.2-.6 0-2.3 .1-3.4 .1-1.2 0-2.5-.2-3.7-.3-1.2-.1-2.4-.2-3.6-.3-1.1-.1-2.2-.1-3.4-.3-1.1-.1-2.8-.5-3.4-.6-.7-.1-2.7-.5-4-.7-1.4-.3-2.7-.5-4-.8-1.3-.2-2.7-.4-3.8-.6-1-.2-2-.5-2.4-.6z" fill="#8E2152" stroke="none" stroke-width="0" stroke-linejoin="round" stroke-linecap="round" /><g clip-path="url(#emoliplow)"><path d="m44 72c0-1.8 11-4.6 18-5.5 7-.9 17-.7 24 0 7 .7 17.3 2.7 18 4.5 .7 1.8-7 4.9-14 6-7 1.1-20.3 1.3-28 .5-7.7-.8-18-3.7-18-5.5z" fill="#E0679A" stroke="none" stroke-width="0" stroke-linejoin="round" stroke-linecap="round" opacity="0.8"/><path d="m56 70.5c1.7-.8 9.7-1.8 14-2.1 4.3-.3 11.3-.3 12 .4 .7 .7-4.3 2.9-8 3.6-3.7 .7-11 .9-14 .6-3-.3-5.7-1.7-4-2.5z" fill="#FFC2D9" stroke="none" stroke-width="0" stroke-linejoin="round" stroke-linecap="round" opacity="0.8"/><path d="m30 74c4 1.9 15.7 9.2 24 11.5 8.3 2.3 17 3.3 26 2.5 9-.8 23.3-5.8 28-7" fill="none" stroke="#7A1A44" stroke-width="4" stroke-linejoin="round" stroke-linecap="round" opacity="0.5"/></g><g clip-path="url(#emolipup)"><path d="m40 41c2.5-.9 11-4.8 15-5.5 4-.7 7.5 .8 9 1" fill="none" stroke="#C04878" stroke-width="3.2" stroke-linejoin="round" stroke-linecap="round" opacity="0.8"/><path d="m88 35.5c2-.3 7.7-2 12-1.5 4.3 .5 11.7 3.8 14 4.5" fill="none" stroke="#C04878" stroke-width="3.2" stroke-linejoin="round" stroke-linecap="round" opacity="0.8"/><path d="m30 56c5 .4 19 2 30 2.2 11 .2 25.3 .2 36-1 10.7-1.2 23.3-5.2 28-6.2" fill="none" stroke="#5E1236" stroke-width="3" stroke-linejoin="round" stroke-linecap="round" opacity="0.6"/></g><path d="m14.1 56.3c.2-.2 .9-.8 1.5-1.3 .5-.6 1.2-1.2 1.9-1.9 .7-.6 1.3-1.2 2-1.9 .8-.7 2-2 2.4-2.4 .4-.4 1.6-1.5 2.5-2.3 1-.7 2.1-1.5 3.2-2.3 1.1-.8 2.3-1.6 3.4-2.4 1-.7 2.6-1.6 3.2-1.9 .5-.3 2-1.1 3.1-1.7 1.1-.6 2.2-1.3 3.2-2 1-.6 2-1.2 3-1.7 1-.5 2.4-.9 2.9-1.1 .5-.1 2.1-.5 3.1-.7 1.1-.2 2.3-.3 3.2-.5 .9-.1 1.7-.2 2.5-.3 .8-.1 1.9-.2 2.3-.2 .3 0 1.5 0 2.3 .1 .7 0 1.4 .2 2.1 .3 .6 .2 1.2 .4 1.9 .6 .6 .2 1.7 .6 2 .8 .4 .2 1.5 .7 2.2 1.2 .8 .5 1.5 1.1 2.3 1.7 .8 .5 1.6 1.2 2.4 1.6 .7 .4 1.9 .5 2.3 .6 .3-.2 1.3-.6 1.9-1.1 .7-.5 1.2-1.3 1.9-1.9 .8-.6 1.6-1.2 2.4-1.7 .8-.5 2.2-1.1 2.7-1.3 .4-.1 1.8-.5 2.7-.7 .9-.2 1.8-.3 2.6-.4 .9-.2 1.6-.3 2.5-.4 .8 0 2.2-.1 2.6-.1 .5 0 1.8 .1 2.7 .1 .9 .1 1.7 .1 2.7 .2 1 .2 2.1 .4 3.1 .6 1.1 .2 2.7 .6 3.3 .7 .5 .1 2 .4 3.1 .7 1.1 .4 2.3 .8 3.5 1.3 1.1 .5 2.1 1.1 3.2 1.6 1 .5 2.4 1.3 2.9 1.6 .5 .2 2 1 2.9 1.4 1 .5 1.9 .9 2.8 1.4 .9 .5 1.8 .9 2.7 1.4 .9 .6 2.3 1.4 2.8 1.7 .4 .2 1.7 1 2.5 1.4 .8 .5 1.6 .9 2.4 1.4 .7 .4 1.4 .9 2 1.3 .5 .3 1.1 .8 1.3 .9l0 0c-.5 .2-1.8 .5-3.1 .8-1.3 .4-3 .9-4.6 1.4-1.6 .5-3.3 1.1-4.8 1.6-1.4 .4-3.3 1-4 1.2-.7 .2-2.6 .8-3.9 1.2-1.3 .4-2.6 .9-3.8 1.3-1.3 .3-2.6 .7-3.8 1-1.3 .3-3.2 .8-3.8 1-.8 .1-2.9 .4-4.3 .6-1.4 .2-2.9 .4-4.2 .6-1.4 .2-2.8 .4-4.1 .6-1.3 .2-3.1 .5-3.7 .6-.7 .1-2.8 .4-4.1 .5-1.3 .1-2.4 .3-3.6 .4-1.2 .1-2.2 .2-3.5 .3-1.2 0-3.2 0-3.9 0-.5-.1-2.3-.2-3.4-.3-1.1-.2-2.1-.4-3.2-.4-1.1-.1-2.1-.1-3.2-.1-1.1-.1-2.8-.1-3.4-.1-.6 0-2.4 0-3.7 0-1.2-.1-2.5 0-3.8-.1-1.4 0-2.8-.1-4.2-.2-1.5-.1-3.6-.1-4.3-.2-.6 0-2.3 .1-3.4 .1-1.2 0-2.5-.2-3.7-.3-1.2-.1-2.4-.2-3.6-.3-1.1-.1-2.2-.1-3.4-.3-1.1-.1-2.8-.5-3.4-.6-.7-.1-2.7-.5-4-.7-1.4-.3-2.7-.5-4-.8-1.3-.2-2.7-.4-3.8-.6-1-.2-2-.5-2.4-.6z" fill="none" stroke="#000000" stroke-width="2.6" stroke-linejoin="round" stroke-linecap="round" /><path d="m14.1 56.3c.4 .1 1.4 .4 2.4 .6 1.1 .2 2.5 .4 3.8 .6 1.3 .3 2.6 .5 4 .8 1.3 .2 3.3 .6 4 .7 .6 .1 2.3 .5 3.4 .6 1.2 .2 2.3 .2 3.4 .3 1.2 .1 2.4 .2 3.6 .3 1.2 .1 2.5 .3 3.7 .3 1.1 0 2.8-.1 3.4-.1 .7 .1 2.8 .1 4.3 .2 1.4 .1 2.8 .2 4.2 .2 1.3 .1 2.6 0 3.8 .1 1.3 0 3.1 0 3.7 0 .6 0 2.3 0 3.4 .1 1.1 0 2.1 0 3.2 .1 1.1 0 2.1 .2 3.2 .4 1.1 .1 2.9 .2 3.4 .3 .7 0 2.7 0 3.9 0 1.3-.1 2.3-.2 3.5-.3 1.2-.1 2.3-.3 3.6-.4 1.3-.1 3.4-.4 4.1-.5 .6-.1 2.4-.4 3.7-.6 1.3-.2 2.7-.4 4.1-.6 1.3-.2 2.8-.4 4.2-.6 1.4-.2 3.5-.5 4.3-.6 .6-.2 2.5-.7 3.8-1 1.2-.3 2.5-.7 3.8-1 1.2-.4 2.5-.9 3.8-1.3 1.3-.4 3.2-1 3.9-1.2 .7-.2 2.6-.8 4-1.2 1.5-.5 3.2-1.1 4.8-1.6 1.6-.5 3.3-1 4.6-1.4 1.3-.3 2.6-.6 3.1-.8l0 0c-.1 .4-.5 1.3-1 2.1-.4 .8-.9 1.8-1.4 2.8-.6 1-1.2 1.9-1.8 2.9-.6 1-1.6 2.5-1.9 3-.4 .5-1.3 2-2 3-.6 1-1.2 1.9-1.9 2.8-.7 .9-1.3 1.9-2.1 2.7-.9 .9-2.5 2.2-3 2.6-.5 .5-2.2 1.9-3.2 2.8-1 .9-1.9 1.9-2.9 2.8-.9 .9-1.8 1.6-2.9 2.5-1.1 .8-2.9 2-3.5 2.4-.6 .3-2.4 1.4-3.6 2-1.2 .6-2.5 1-3.8 1.5-1.3 .5-2.5 .9-3.8 1.4-1.3 .4-3.4 1.1-4.1 1.3-.7 .1-2.9 .3-4.3 .5-1.4 .1-2.8 .3-4.1 .5-1.4 .2-2.8 .5-4.1 .8-1.4 .3-3.4 .7-4.1 .8-.7 0-2.7 .1-4 .1-1.2 0-2.3 0-3.5-.1-1.1 0-2.2-.1-3.4-.2-1.2-.1-3-.3-3.6-.4-.6-.1-2.4-.4-3.7-.6-1.3-.2-2.6-.5-4-.8-1.4-.3-2.9-.8-4.3-1.2-1.3-.4-3.4-1.1-4.1-1.4-.7-.3-2.9-1.1-4.3-1.7-1.4-.6-2.6-1.2-3.9-1.9-1.3-.6-2.4-1.4-3.7-2.1-1.3-.7-3.2-1.8-3.8-2.2-.5-.5-2.1-2-3-3-1-1-1.8-2-2.7-2.9-.9-1-1.9-1.8-2.8-2.7-.9-.9-2-2.2-2.4-2.7-.4-.4-1.6-1.8-2.4-2.6-.8-1-1.6-1.9-2.3-2.8-.6-.8-1.2-1.7-1.7-2.5-.4-.7-.8-1.6-1-1.9z" fill="none" stroke="#000000" stroke-width="2.6" stroke-linejoin="round" stroke-linecap="round" /><path d="m14.1 56.3c.4 .1 1.4 .4 2.4 .6 1.1 .2 2.5 .4 3.8 .6 1.3 .3 2.6 .5 4 .8 1.3 .2 3.3 .6 4 .7 .6 .1 2.3 .5 3.4 .6 1.2 .2 2.3 .2 3.4 .3 1.2 .1 2.4 .2 3.6 .3 1.2 .1 2.5 .3 3.7 .3 1.1 0 2.8-.1 3.4-.1 .7 .1 2.8 .1 4.3 .2 1.4 .1 2.8 .2 4.2 .2 1.3 .1 2.6 0 3.8 .1 1.3 0 3.1 0 3.7 0 .6 0 2.3 0 3.4 .1 1.1 0 2.1 0 3.2 .1 1.1 0 2.1 .2 3.2 .4 1.1 .1 2.9 .2 3.4 .3 .7 0 2.7 0 3.9 0 1.3-.1 2.3-.2 3.5-.3 1.2-.1 2.3-.3 3.6-.4 1.3-.1 3.4-.4 4.1-.5 .6-.1 2.4-.4 3.7-.6 1.3-.2 2.7-.4 4.1-.6 1.3-.2 2.8-.4 4.2-.6 1.4-.2 3.5-.5 4.3-.6 .6-.2 2.5-.7 3.8-1 1.2-.3 2.5-.7 3.8-1 1.2-.4 2.5-.9 3.8-1.3 1.3-.4 3.2-1 3.9-1.2 .7-.2 2.6-.8 4-1.2 1.5-.5 3.2-1.1 4.8-1.6 1.6-.5 3.3-1 4.6-1.4 1.3-.3 2.6-.6 3.1-.8" fill="none" stroke="#000000" stroke-width="2.4" stroke-linejoin="round" stroke-linecap="round" /><path d="m47.9 81.2 1 2 .3 2.2-.4 2.2-1 2-1.6 1.6-2 1-2.2 .3-2.2-.3-2-1-1.6-1.6-1-2-.4-2.2 .3-2.2 1-2" fill="none" stroke="#000000" stroke-width="3.3" stroke-linejoin="round" stroke-linecap="round" /><path d="m47.9 81.2 1 2 .3 2.2-.4 2.2-1 2-1.6 1.6-2 1-2.2 .3-2.2-.3-2-1-1.6-1.6-1-2-.4-2.2 .3-2.2 1-2" fill="none" stroke="#C9CED8" stroke-width="2.4" stroke-linejoin="round" stroke-linecap="round" /><circle cx="38.8" cy="90.5" r="0.8" fill="#FFFFFF"/><circle cx="38.4" cy="85.8" r="1.1" fill="#FFFFFF"/><path d="m109.9 81.8 1 2 .3 2.2-.4 2.2-1 2-1.6 1.6-2 1-2.2 .3-2.2-.3-2-1-1.6-1.6-1-2-.4-2.2 .3-2.2 1-2" fill="none" stroke="#000000" stroke-width="3.3" stroke-linejoin="round" stroke-linecap="round" /><path d="m109.9 81.8 1 2 .3 2.2-.4 2.2-1 2-1.6 1.6-2 1-2.2 .3-2.2-.3-2-1-1.6-1.6-1-2-.4-2.2 .3-2.2 1-2" fill="none" stroke="#C9CED8" stroke-width="2.4" stroke-linejoin="round" stroke-linecap="round" /><circle cx="100.8" cy="91.1" r="0.8" fill="#FFFFFF"/><circle cx="100.4" cy="86.4" r="1.1" fill="#FFFFFF"/></g></g></g></g>
<g transform="rotate(24 512 512)"><rect x="-1800" y="-500" width="520" height="2024" fill="url(#sheen)"><animate attributeName="x" values="-1800;1500;1500" keyTimes="0;.42;1" calcMode="spline" keySplines=".4 0 .6 1;0 0 1 1" dur="6s" begin="1s" repeatCount="indefinite"/></rect></g>
<rect x="20" y="20" width="984" height="984" rx="30" fill="none" stroke="#000" stroke-width="27"/>
<rect x="20" y="20" width="984" height="984" rx="30" fill="none" stroke="url(#holo)" stroke-width="18"/>
<rect x="20" y="20" width="984" height="984" rx="30" fill="none" stroke="#FFF" stroke-width="7" stroke-opacity="0" stroke-dasharray="150 3736" stroke-linecap="round"><set attributeName="stroke-opacity" to=".8" begin="0s"/><animate attributeName="stroke-dashoffset" from="0" to="-3886" dur="4.5s" repeatCount="indefinite"/></rect>
<rect x="35" y="35" width="954" height="954" rx="18" fill="none" stroke="#000" stroke-width="3.5"/>
<rect x="43" y="43" width="938" height="938" rx="12" fill="none" stroke="url(#holo)" stroke-width="2.5" opacity=".85"/>
<g transform="translate(938 85)"><g><animateTransform attributeName="transform" type="scale" values="1;1.16;1;1.09;1" dur="1.8s" begin="0s" repeatCount="indefinite" /><g transform="translate(-938 -85)"><g transform="translate(886 30) scale(1.6) rotate(12 32 32)"><g><path d="m29.1 25.3-.2-.9-1.1-2.3-2.3-3-3.6-2.7-4.6-1.6-5.1 .2-4.9 2.1-4 3.8-2.3 4.9-.3 5.3 1.8 5.2 3.7 4.8 5 4.3 5.8 3.9 5.7 3.6 4.8 3.5 3.7 3.2 2.3 2.6 1 1.9 .2 .6-.3-1.8-.1-12.4-5-5.9 4.4-7.5-7.7-5.2 3-7.4z" fill="url(#holo)" stroke="#000000" stroke-width="2.8" stroke-linejoin="round" stroke-linecap="round" /><path d="m32.4 24.8-.1-.9 .4-2.5 1.4-3.5 2.7-3.6 4-2.8 5-1.2 5.3 .6 4.9 2.6 3.5 4 1.8 5.1-.3 5.5-2.2 5.6-3.7 5.5-4.5 5.3-4.4 5.1-3.8 4.7-2.6 4-1.4 3.3-.5 2 0 .7-.2-1.8-.1-12.4-5.1-5.9 4.4-7.6-7.6-5.1 3-7.4z" fill="url(#holo)" stroke="#000000" stroke-width="2.8" stroke-linejoin="round" stroke-linecap="round" /><path d="m14 22c2.8-5 7.6-7.4 12.4-6.4" fill="none" stroke="#FFFFFF" stroke-width="2.4" stroke-linejoin="round" stroke-linecap="round" opacity=".8"/></g></g></g></g></g>
<g transform="translate(82 946)"><g><animateTransform attributeName="transform" type="scale" values="1;1.16;1;1.09;1" dur="1.8s" begin="0.9s" repeatCount="indefinite" /><g transform="translate(-82 -946)"><g transform="translate(34 892) scale(1.5) rotate(-14 32 32)"><g><path d="m29.1 25.3-.2-.9-1.1-2.3-2.3-3-3.6-2.7-4.6-1.6-5.1 .2-4.9 2.1-4 3.8-2.3 4.9-.3 5.3 1.8 5.2 3.7 4.8 5 4.3 5.8 3.9 5.7 3.6 4.8 3.5 3.7 3.2 2.3 2.6 1 1.9 .2 .6-.3-1.8-.1-12.4-5-5.9 4.4-7.5-7.7-5.2 3-7.4z" fill="url(#holo)" stroke="#000000" stroke-width="2.8" stroke-linejoin="round" stroke-linecap="round" /><path d="m32.4 24.8-.1-.9 .4-2.5 1.4-3.5 2.7-3.6 4-2.8 5-1.2 5.3 .6 4.9 2.6 3.5 4 1.8 5.1-.3 5.5-2.2 5.6-3.7 5.5-4.5 5.3-4.4 5.1-3.8 4.7-2.6 4-1.4 3.3-.5 2 0 .7-.2-1.8-.1-12.4-5.1-5.9 4.4-7.6-7.6-5.1 3-7.4z" fill="url(#holo)" stroke="#000000" stroke-width="2.8" stroke-linejoin="round" stroke-linecap="round" /><path d="m14 22c2.8-5 7.6-7.4 12.4-6.4" fill="none" stroke="#FFFFFF" stroke-width="2.4" stroke-linejoin="round" stroke-linecap="round" opacity=".8"/></g></g></g></g></g>
<g transform="translate(134 134) scale(1.2) translate(-100 -100)"><g><animateTransform attributeName="transform" type="rotate" values="0 100 100;360 100 100" dur="36s" repeatCount="indefinite"/><g><path d="m100 2.5c3.2 0 6.2 6.1 9.6 6.5 3.3 .4 7.6-5 10.7-4.4 3.1 .7 4.7 7.3 8 8.4 3.2 1 8.4-3.4 11.4-2.1 2.9 1.3 3.1 8.2 6.1 9.9 2.9 1.7 8.9-1.6 11.5 .3 2.6 1.9 1.4 8.6 3.9 10.9 2.6 2.3 9.1 .4 11.3 2.8 2.1 2.3-.5 8.7 1.5 11.4 2 2.8 8.8 2.3 10.4 5 1.6 2.8-2.2 8.5-.8 11.6 1.4 3.1 8.1 4 9.1 7.1 1 3-3.9 7.8-3.2 11.1 .7 3.3 7.1 5.6 7.5 8.8 .3 3.2-5.5 6.8-5.5 10.2 0 3.4 5.8 7 5.5 10.2-.4 3.2-6.8 5.5-7.5 8.8-.7 3.3 4.2 8.1 3.2 11.1-1 3.1-7.7 4-9.1 7.1-1.4 3.1 2.4 8.8 .8 11.5-1.6 2.8-8.4 2.3-10.4 5.1-2 2.7 .6 9.1-1.5 11.4-2.2 2.4-8.7 .5-11.3 2.8-2.5 2.3-1.3 9-3.9 10.9-2.6 1.9-8.6-1.4-11.5 .3-3 1.7-3.2 8.6-6.1 9.9-3 1.3-8.2-3.1-11.4-2.1-3.3 1.1-4.9 7.7-8 8.4-3.1 .6-7.4-4.8-10.7-4.4-3.4 .4-6.4 6.5-9.6 6.5-3.2 0-6.2-6.1-9.6-6.5-3.3-.4-7.6 5-10.7 4.4-3.1-.7-4.7-7.3-8-8.4-3.2-1-8.4 3.4-11.4 2.1-2.9-1.3-3.1-8.2-6-9.9-3-1.7-9 1.6-11.6-.3-2.6-1.9-1.4-8.6-3.9-10.9-2.6-2.3-9.1-.4-11.3-2.8-2.1-2.3 .5-8.7-1.5-11.4-2-2.8-8.8-2.3-10.4-5-1.6-2.8 2.2-8.5 .8-11.6-1.4-3.1-8.1-4-9.1-7.1-1-3 3.9-7.8 3.2-11.1-.7-3.3-7.1-5.6-7.5-8.8-.3-3.2 5.5-6.8 5.5-10.2 0-3.4-5.8-7-5.5-10.2 .4-3.2 6.8-5.5 7.5-8.8 .7-3.3-4.2-8.1-3.2-11.1 1-3.1 7.7-4 9.1-7.1 1.4-3.1-2.4-8.8-.8-11.6 1.6-2.7 8.4-2.2 10.4-5 2-2.7-.6-9.1 1.5-11.4 2.2-2.4 8.7-.5 11.3-2.8 2.5-2.3 1.3-9 3.9-10.9 2.6-1.9 8.6 1.4 11.6-.3 2.9-1.7 3.1-8.6 6-9.9 3-1.3 8.2 3.1 11.4 2.1 3.3-1.1 4.9-7.7 8-8.4 3.1-.6 7.4 4.8 10.7 4.4 3.4-.4 6.4-6.5 9.6-6.5z" fill="url(#holo)" stroke="#000000" stroke-width="3.2" stroke-linejoin="round" stroke-linecap="round" /><circle cx="100" cy="100" r="66" fill="#140816"/><circle cx="100" cy="100" r="66" fill="none" stroke="#000000" stroke-width="3"/><circle cx="100" cy="100" r="86.5" fill="none" stroke="#1A0A1E" stroke-width="1.6" stroke-dasharray="1.2 3.6" stroke-linecap="round" opacity=".55"/><path d="m101.3 29.4 1-13.6 8.7 .7-.1 2.3-6.2-.4-.2 3.2 5.6 .4-.2 2.3-5.6-.4-.3 3.4 6.3 .4-.2 2.4zm17.7 2.3 4.9-12.6 4.5 1.7-2.2 11.9 .4 .1 6.5-10.2 4.4 1.8-5 12.6-2.3-.9 4.3-10.9-.3-.1-6.5 10-3.9-1.5 2.1-11.8-.3-.1-4.3 10.9zm25.6 14.1q-2-1.7-2.2-3.7-.3-2.1 1.3-4.1l2.1-2.5q1.7-2 3.8-2.2 2-.1 4 1.5 2 1.7 2.3 3.7 .2 2.1-1.4 4.1l-2.1 2.5q-1.7 2-3.7 2.2-2.1 .1-4.1-1.5zm1.5-1.8q1.1 .9 2.2 .8 1.2-.2 2.1-1.3l2.1-2.6q.9-1.1 .8-2.2 0-1.2-1.2-2.1-1.1-.9-2.2-.8-1.2 .2-2 1.3l-2.2 2.6q-.9 1.1-.8 2.2 .1 1.2 1.2 2.1zm15.9 22 12.3-5.6 1.1 2.3-5.1 2.3 2.1 4.6 5.1-2.3 1.1 2.3-12.4 5.7-1-2.4 5.1-2.3-2.1-4.6-5.2 2.4zm7.5 23.8q-.4-2.6 .8-4.3 1.2-1.7 3.7-2.1l3.3-.4q2.6-.4 4.2 .9 1.6 1.3 2 3.8 .3 2.5-.8 4.3-1.2 1.7-3.8 2l-3.2 .5q-2.6 .4-4.2-.9-1.6-1.3-2-3.8zm2.2-.4q.3 1.5 1.2 2.1 .9 .7 2.3 .5l3.4-.5q1.4-.2 2.1-1.1 .7-.9 .5-2.4-.2-1.4-1.1-2-1-.7-2.4-.5l-3.4 .5q-1.3 .2-2.1 1.1-.7 .9-.5 2.3zm-1.2 15.2 13.5 1.6-.3 2.6-11.2-1.4-.8 6.2-2.3-.3zm-3.1 16.9 2.1 .8-.7 1.7 8.4 3.4 .7-1.6 2.1 .8-2.1 5.2q-1.1 2.5-2.9 3.3-1.8 .8-4.4-.2l-2.3-1q-2.6-1-3.3-2.9-.8-1.8 .3-4.3zm.5 4.9-.5 1.2q-.6 1.4-.1 2.4 .5 1 1.9 1.5l2.5 1.1q1.4 .5 2.4 .2 1-.4 1.6-1.8l.5-1.2zm-9.5 13.3 10.8 8.3-5.4 6.9-1.8-1.4 3.8-4.9-2.6-2-3.4 4.5-1.9-1.4 3.4-4.5-2.6-2-3.9 5-1.8-1.5zm-11.8 13.4 8.3 10.8-4.7 3.6q-1 .8-2 1-1.1 .2-2-.1-.9-.4-1.6-1.2l-.1-.2q-.7-1-.7-2 0-.9 .4-1.7l-.2-.3q-.6 .5-1.3 .3-.6-.1-1.1-.8l-2.7-3.5 2-1.6 2.5 3.3q.3 .4 .7 .4 .3 .1 .8-.2l2.8-2.2-3.1-4.1zm2.5 7.5-2.4 1.8q-.7 .6-.8 1.3-.1 .7 .4 1.3l.1 .2q.5 .6 1.2 .7 .7 .1 1.4-.4l2.5-1.9zm-31.8 10q.8-.2 1.5 0 .7 .2 1.2 .7 .5 .6 .7 1.3 .2 .8 0 1.5-.2 .7-.7 1.2-.6 .5-1.4 .7-.8 .2-1.4 0-.7-.2-1.2-.7-.5-.6-.7-1.4-.2-.7 0-1.4 .2-.7 .7-1.3 .6-.5 1.3-.6zm-29.1-1.4q1.5 .3 2.6 1 1.1 .8 1.6 1.9 .5 1.2 .3 2.7l-.1 .5-2.5-.4 .1-.6q.2-1.2-.5-1.9-.6-.7-1.9-1-1.3-.2-2 .2-.8 .4-.9 1.2-.1 .6 .2 1 .2 .4 .8 .7 .6 .3 1.4 .7l.4 .2q1.3 .5 2.2 1.1 1 .7 1.3 1.5 .4 .9 .2 2.1-.2 1.2-.9 2-.7 .8-1.9 1.1-1.1 .3-2.6 0-1.4-.2-2.4-.9-1.1-.7-1.5-1.8-.5-1-.3-2.5l.1-.6 2.5 .4-.1 .6q-.1 .8 .1 1.3 .2 .5 .7 .8 .6 .4 1.3 .5 1.2 .2 1.8-.2 .6-.3 .7-1 .1-.5-.1-.9-.2-.4-.7-.7-.4-.4-1.2-.7l-.4-.1q-1.4-.6-2.4-1.2-1-.7-1.4-1.6-.5-.9-.3-2.1 .2-1.2 1-2 .8-.9 2-1.2 1.2-.3 2.8-.1zm-18.4-5.8q2.4 1.1 3.1 3 .8 2-.3 4.3l-1.4 3q-1.2 2.4-3.1 3-2 .6-4.3-.5-2.4-1.1-3.1-3-.8-2 .3-4.3l1.4-3q1.2-2.3 3.1-3 2-.6 4.3 .5zm-.9 2.1q-1.3-.6-2.4-.2-1.1 .4-1.7 1.7l-1.5 3q-.6 1.3-.2 2.4 .3 1.1 1.6 1.7 1.3 .6 2.4 .2 1.1-.4 1.7-1.6l1.5-3.1q.6-1.3 .2-2.4-.4-1.1-1.6-1.7zm-15.7-13.1q1.2 1.1 1.7 2.3 .5 1.3 .2 2.5-.3 1.3-1.3 2.5l-5.9 6.6-1.9-1.8 5.9-6.6q.9-.9 .8-1.9 0-1-1-1.9-1-.9-2-.9-1 .1-1.9 1l-5.9 6.7-1.9-1.7 5.9-6.6q1-1.2 2.2-1.6 1.3-.4 2.6-.1 1.3 .3 2.5 1.5zm-10.2-10.8-11.4 7.4-1.4-2.1 9.4-6.1-3.4-5.3 2-1.2zm-8.5-14.9-2.1 .7-.6-1.7-8.6 2.7 .5 1.7-2.1 .7-2.2-6.6q-.3-1.2-.2-2.2 .1-1 .7-1.8 .5-.7 1.6-1l.1-.1q.9-.2 1.6-.1 .7 .2 1.1 .5 .5 .4 .7 .7l.4-.1q-.1-.4 .1-1 .2-.6 .6-1.1 .5-.5 1.4-.8l.2-.1q1.1-.3 2-.1 .9 .3 1.6 1 .7 .8 1.1 2zm-3.5-3.4-.8-2.3q-.2-.8-.8-1.2-.5-.4-1.2-.1l-.2 0q-.7 .3-1 .9-.2 .6 .1 1.4l.7 2.3zm-5.4 1.7-.8-2.3q-.2-.7-.7-1.1-.6-.4-1.3-.2l-.2 .1q-.7 .2-.9 .8-.2 .6 0 1.4l.8 2.3zm4.2-23.3q.1 2.6-1.3 4.1-1.4 1.6-4 1.6l-3.3 .1q-2.6 .1-4-1.4-1.5-1.5-1.5-4.1-.1-2.5 1.3-4.1 1.3-1.5 4-1.6l3.2-.1q2.6 0 4.1 1.4 1.4 1.5 1.5 4.1zm-2.3 0q0-1.4-.9-2.2-.8-.7-2.2-.7l-3.5 .1q-1.4 0-2.2 .8-.8 .8-.8 2.3 .1 1.4 .9 2.2 .9 .8 2.3 .7l3.4 0q1.4-.1 2.2-.9 .8-.8 .8-2.3zm4.7-19.8q-.5 1.6-1.4 2.6-.9 1-2.1 1.3-1.3 .3-2.8-.1l-8.5-2.3 .6-2.5 8.6 2.3q1.2 .4 2.1-.1 .9-.5 1.2-1.8 .4-1.3-.1-2.2-.5-.9-1.7-1.2l-8.6-2.3 .6-2.5 8.6 2.3q1.5 .4 2.4 1.3 .9 .9 1.2 2.2 .3 1.3-.1 3zm4.8-14-11.6-7.1 2.5-4.2 11.6 3.9 .2-.3-10.2-6.2 1.3-2.1 11.7 7-2.6 4.2-11.5-3.9-.2 .3 10.1 6.2zm11.3-16.2-1.5-1.6 1.3-1.2-6.1-6.7-1.4 1.2-1.5-1.7 4.1-3.8q2.1-1.8 4.1-1.8 2 .1 3.8 2.1l1.7 1.9q1.9 2 1.8 4-.2 2-2.2 3.9zm1.6-4.6 1-.9q1.1-1 1.1-2.1 0-1.1-1-2.2l-1.8-2q-1.1-1.1-2.1-1.2-1.1-.1-2.2 .9l-1 .9zm26.9-16q-.7 .3-1.4 .1-.7-.1-1.3-.6-.6-.5-.8-1.2-.3-.8-.1-1.5 .1-.7 .6-1.3 .5-.5 1.2-.8 .8-.2 1.5-.1 .7 .2 1.3 .6 .5 .5 .8 1.3 .2 .8 .1 1.5-.2 .7-.7 1.2-.5 .6-1.2 .8z" fill="#1A0A1E"/><path d="m97.2 93.2-.3-.9-1.1-2.6-2.4-3.4-3.8-3.1-5.1-1.9-5.6 0-5.5 2.1-4.5 4-2.8 5.3-.6 5.9 1.8 5.8 3.9 5.4 5.5 5 6.2 4.5 6.1 4.2 5.2 4 3.9 3.6 2.4 3.1 1.1 2.1 .2 .7-.2-2 .3-13.7-5.3-6.7 5.2-8.2-8.3-5.9 3.6-8.1z" fill="#E84D7F" stroke="#000000" stroke-width="2.6" stroke-linejoin="round" stroke-linecap="round" /><path d="m100.7 92.9 .1-1 .5-2.8 1.7-3.8 3.1-3.9 4.5-2.9 5.6-1.1 5.8 .9 5.2 3 3.8 4.6 1.8 5.6-.6 6.1-2.6 6.1-4.3 6-5.2 5.6-5 5.4-4.4 5-3 4.4-1.7 3.5-.6 2.3-.1 .7-.2-2 .4-13.7-5.3-6.7 5.1-8.1-8.2-6 3.6-8z" fill="#E84D7F" stroke="#000000" stroke-width="2.6" stroke-linejoin="round" stroke-linecap="round" /><path d="m78.8 78c3.8-4.6 10-6.8 15.6-4.8" fill="none" stroke="#F7A8C4" stroke-width="2.6" stroke-linejoin="round" stroke-linecap="round" /><circle cx="100" cy="100" r="61" fill="none" stroke="url(#holo)" stroke-width="1.6" opacity=".7"/></g></g></g>
<g transform="rotate(-10 936 914)"><g><animateTransform attributeName="transform" type="rotate" values="0 936 824;7 936 824;0 936 824;-7 936 824;0 936 824" dur="3.6s" calcMode="spline" keySplines=".45 0 .55 1;.45 0 .55 1;.45 0 .55 1;.45 0 .55 1" repeatCount="indefinite"/><g transform="translate(866 761.2) scale(1.2)"><g id="emoholdlock"><path d="m37 98 0-16c0-20 10-28 23-28 13 0 23 8 23 28l0 16" fill="none" stroke="#000000" stroke-width="15" stroke-linejoin="round" stroke-linecap="round" /><path d="m37 98 0-16c0-20 10-28 23-28 13 0 23 8 23 28l0 16" fill="none" stroke="#D3D7E0" stroke-width="9.4" stroke-linejoin="round" stroke-linecap="round" /><path d="m60 105.2c0 0 0-.2 0-.6 .1-.4 .2-1 .4-1.7 .2-.8 .4-1.8 .8-2.8 .4-1 1-2.2 1.6-3.4 .7-1.2 1.5-2.5 2.5-3.7 .9-1.2 2.1-2.4 3.3-3.5 1.3-1.1 2.7-2.1 4.3-3 1.5-.8 3.2-1.6 4.9-2.1 1.8-.5 3.6-.8 5.5-.9 1.8-.1 3.8 0 5.7 .3 1.9 .3 3.8 .9 5.6 1.7 1.8 .7 3.5 1.7 5.1 2.9 1.6 1.1 3.2 2.5 4.5 4 1.3 1.4 2.4 3.1 3.4 4.8 .9 1.7 1.6 3.6 2.1 5.4 .5 1.9 .7 3.9 .7 5.8 0 1.9-.2 3.9-.7 5.9-.5 2-1.2 3.9-2.1 5.9-1 1.9-2.1 3.8-3.4 5.7-1.3 1.8-2.9 3.7-4.5 5.5-1.6 1.7-3.3 3.5-5.1 5.2-1.8 1.7-3.7 3.4-5.6 5.1-1.9 1.6-3.9 3.3-5.7 4.9-1.9 1.5-3.7 3.1-5.5 4.7-1.7 1.5-3.4 3-4.9 4.5-1.6 1.5-3 2.9-4.3 4.3-1.2 1.4-2.4 2.7-3.3 3.9-1 1.3-1.8 2.5-2.5 3.6-.6 1-1.2 2-1.6 2.9-.4 .8-.6 1.6-.8 2.2-.2 .6-.3 1.1-.4 1.4 0 .3 0 .5 0 .5 0 0 0-.2 0-.5-.1-.3-.2-.8-.4-1.4-.2-.6-.4-1.4-.8-2.2-.4-.9-1-1.9-1.6-2.9-.7-1.1-1.5-2.3-2.5-3.6-.9-1.2-2.1-2.5-3.3-3.9-1.3-1.4-2.7-2.8-4.3-4.3-1.5-1.5-3.2-3-4.9-4.5-1.8-1.6-3.6-3.2-5.5-4.7-1.8-1.6-3.8-3.3-5.7-4.9-1.9-1.7-3.8-3.4-5.6-5.1-1.8-1.7-3.5-3.5-5.1-5.2-1.6-1.8-3.2-3.7-4.5-5.5-1.3-1.9-2.4-3.8-3.4-5.7-.9-2-1.6-3.9-2.1-5.9-.5-2-.7-4-.7-5.9 0-1.9 .2-3.9 .7-5.8 .5-1.8 1.2-3.7 2.1-5.4 1-1.7 2.1-3.4 3.4-4.8 1.3-1.5 2.9-2.9 4.5-4 1.6-1.2 3.3-2.2 5.1-2.9 1.8-.8 3.7-1.4 5.6-1.7 1.9-.3 3.9-.4 5.7-.3 1.9 .1 3.7 .4 5.5 .9 1.7 .5 3.4 1.3 4.9 2.1 1.6 .9 3 1.9 4.3 3 1.2 1.1 2.4 2.3 3.3 3.5 1 1.2 1.8 2.5 2.5 3.7 .6 1.2 1.2 2.4 1.6 3.4 .4 1 .6 2 .8 2.8 .2 .7 .3 1.3 .4 1.7 0 .4 0 .6 0 .6z" fill="#E84D7F" stroke="none" stroke-width="0" stroke-linejoin="round" stroke-linecap="round" /><clipPath id="emoholdlockclip"><path d="m60 105.2c0 0 0-.2 0-.6 .1-.4 .2-1 .4-1.7 .2-.8 .4-1.8 .8-2.8 .4-1 1-2.2 1.6-3.4 .7-1.2 1.5-2.5 2.5-3.7 .9-1.2 2.1-2.4 3.3-3.5 1.3-1.1 2.7-2.1 4.3-3 1.5-.8 3.2-1.6 4.9-2.1 1.8-.5 3.6-.8 5.5-.9 1.8-.1 3.8 0 5.7 .3 1.9 .3 3.8 .9 5.6 1.7 1.8 .7 3.5 1.7 5.1 2.9 1.6 1.1 3.2 2.5 4.5 4 1.3 1.4 2.4 3.1 3.4 4.8 .9 1.7 1.6 3.6 2.1 5.4 .5 1.9 .7 3.9 .7 5.8 0 1.9-.2 3.9-.7 5.9-.5 2-1.2 3.9-2.1 5.9-1 1.9-2.1 3.8-3.4 5.7-1.3 1.8-2.9 3.7-4.5 5.5-1.6 1.7-3.3 3.5-5.1 5.2-1.8 1.7-3.7 3.4-5.6 5.1-1.9 1.6-3.9 3.3-5.7 4.9-1.9 1.5-3.7 3.1-5.5 4.7-1.7 1.5-3.4 3-4.9 4.5-1.6 1.5-3 2.9-4.3 4.3-1.2 1.4-2.4 2.7-3.3 3.9-1 1.3-1.8 2.5-2.5 3.6-.6 1-1.2 2-1.6 2.9-.4 .8-.6 1.6-.8 2.2-.2 .6-.3 1.1-.4 1.4 0 .3 0 .5 0 .5 0 0 0-.2 0-.5-.1-.3-.2-.8-.4-1.4-.2-.6-.4-1.4-.8-2.2-.4-.9-1-1.9-1.6-2.9-.7-1.1-1.5-2.3-2.5-3.6-.9-1.2-2.1-2.5-3.3-3.9-1.3-1.4-2.7-2.8-4.3-4.3-1.5-1.5-3.2-3-4.9-4.5-1.8-1.6-3.6-3.2-5.5-4.7-1.8-1.6-3.8-3.3-5.7-4.9-1.9-1.7-3.8-3.4-5.6-5.1-1.8-1.7-3.5-3.5-5.1-5.2-1.6-1.8-3.2-3.7-4.5-5.5-1.3-1.9-2.4-3.8-3.4-5.7-.9-2-1.6-3.9-2.1-5.9-.5-2-.7-4-.7-5.9 0-1.9 .2-3.9 .7-5.8 .5-1.8 1.2-3.7 2.1-5.4 1-1.7 2.1-3.4 3.4-4.8 1.3-1.5 2.9-2.9 4.5-4 1.6-1.2 3.3-2.2 5.1-2.9 1.8-.8 3.7-1.4 5.6-1.7 1.9-.3 3.9-.4 5.7-.3 1.9 .1 3.7 .4 5.5 .9 1.7 .5 3.4 1.3 4.9 2.1 1.6 .9 3 1.9 4.3 3 1.2 1.1 2.4 2.3 3.3 3.5 1 1.2 1.8 2.5 2.5 3.7 .6 1.2 1.2 2.4 1.6 3.4 .4 1 .6 2 .8 2.8 .2 .7 .3 1.3 .4 1.7 0 .4 0 .6 0 .6z"/></clipPath><g clip-path="url(#emoholdlockclip)"><path d="m96 96c6 32-10 60-42 74l66 0 0-74z" fill="#B23562" stroke="none" stroke-width="0" stroke-linejoin="round" stroke-linecap="round" opacity=".85"/><path d="m20 112c1.2-2.7 3.7-11.8 7-16 3.3-4.2 8.8-7.8 13-9 4.2-1.2 10 1.7 12 2" fill="none" stroke="#FF9DC0" stroke-width="7" stroke-linejoin="round" stroke-linecap="round" opacity=".9"/></g><path d="m60 105.2c0 0 0-.2 0-.6 .1-.4 .2-1 .4-1.7 .2-.8 .4-1.8 .8-2.8 .4-1 1-2.2 1.6-3.4 .7-1.2 1.5-2.5 2.5-3.7 .9-1.2 2.1-2.4 3.3-3.5 1.3-1.1 2.7-2.1 4.3-3 1.5-.8 3.2-1.6 4.9-2.1 1.8-.5 3.6-.8 5.5-.9 1.8-.1 3.8 0 5.7 .3 1.9 .3 3.8 .9 5.6 1.7 1.8 .7 3.5 1.7 5.1 2.9 1.6 1.1 3.2 2.5 4.5 4 1.3 1.4 2.4 3.1 3.4 4.8 .9 1.7 1.6 3.6 2.1 5.4 .5 1.9 .7 3.9 .7 5.8 0 1.9-.2 3.9-.7 5.9-.5 2-1.2 3.9-2.1 5.9-1 1.9-2.1 3.8-3.4 5.7-1.3 1.8-2.9 3.7-4.5 5.5-1.6 1.7-3.3 3.5-5.1 5.2-1.8 1.7-3.7 3.4-5.6 5.1-1.9 1.6-3.9 3.3-5.7 4.9-1.9 1.5-3.7 3.1-5.5 4.7-1.7 1.5-3.4 3-4.9 4.5-1.6 1.5-3 2.9-4.3 4.3-1.2 1.4-2.4 2.7-3.3 3.9-1 1.3-1.8 2.5-2.5 3.6-.6 1-1.2 2-1.6 2.9-.4 .8-.6 1.6-.8 2.2-.2 .6-.3 1.1-.4 1.4 0 .3 0 .5 0 .5 0 0 0-.2 0-.5-.1-.3-.2-.8-.4-1.4-.2-.6-.4-1.4-.8-2.2-.4-.9-1-1.9-1.6-2.9-.7-1.1-1.5-2.3-2.5-3.6-.9-1.2-2.1-2.5-3.3-3.9-1.3-1.4-2.7-2.8-4.3-4.3-1.5-1.5-3.2-3-4.9-4.5-1.8-1.6-3.6-3.2-5.5-4.7-1.8-1.6-3.8-3.3-5.7-4.9-1.9-1.7-3.8-3.4-5.6-5.1-1.8-1.7-3.5-3.5-5.1-5.2-1.6-1.8-3.2-3.7-4.5-5.5-1.3-1.9-2.4-3.8-3.4-5.7-.9-2-1.6-3.9-2.1-5.9-.5-2-.7-4-.7-5.9 0-1.9 .2-3.9 .7-5.8 .5-1.8 1.2-3.7 2.1-5.4 1-1.7 2.1-3.4 3.4-4.8 1.3-1.5 2.9-2.9 4.5-4 1.6-1.2 3.3-2.2 5.1-2.9 1.8-.8 3.7-1.4 5.6-1.7 1.9-.3 3.9-.4 5.7-.3 1.9 .1 3.7 .4 5.5 .9 1.7 .5 3.4 1.3 4.9 2.1 1.6 .9 3 1.9 4.3 3 1.2 1.1 2.4 2.3 3.3 3.5 1 1.2 1.8 2.5 2.5 3.7 .6 1.2 1.2 2.4 1.6 3.4 .4 1 .6 2 .8 2.8 .2 .7 .3 1.3 .4 1.7 0 .4 0 .6 0 .6z" fill="none" stroke="#000000" stroke-width="3.4" stroke-linejoin="round" stroke-linecap="round" /><path d="m54 119c0-7 12-7 12 0 0 4-2.4 5.6-3.4 7l2 11-9.2 0 2-11c-1-1.4-3.4-3-3.4-7z" fill="#1A0A1E" stroke="#000000" stroke-width="1.6" stroke-linejoin="round" stroke-linecap="round" /><path d="m41.4 90 0-9c0-14 7-21 16.6-22" fill="none" stroke="#F6F8FC" stroke-width="2.6" stroke-linejoin="round" stroke-linecap="round" /><path d="m78.6 84 0 8" fill="none" stroke="#8C92A2" stroke-width="2.2" stroke-linejoin="round" stroke-linecap="round" /><circle cx="31" cy="102" r="3.4" fill="#FFFFFF" opacity=".95"/><path d="m24 104c-3 9-2 20 3 29" fill="none" stroke="url(#holo)" stroke-width="2.4" stroke-linejoin="round" stroke-linecap="round" opacity=".9"/></g></g></g></g>
</svg>